<svg width="16" height="16" viewBox="0 0 16 16" fill="none" xmlns="http://www.w3.org/2000/svg">
<path fill-rule="evenodd" clip-rule="evenodd" d="M2 0C0.895431 0 0 0.895431 0 2V14C0 15.1046 0.895431 16 2 16H14C15.1046 16 16 15.1046 16 14V2C16 0.895431 15.1046 0 14 0H2ZM7.81055 13.7614L2.25947 8.57968C2.246 8.56726 2.23296 8.55443 2.22037 8.54121C2.16018 8.4781 2.11232 8.40834 2.07679 8.33467C2.02746 8.23257 2 8.11928 2 8C2 7.88072 2.02746 7.76743 2.07679 7.66533C2.11196 7.59242 2.1592 7.52334 2.21852 7.46073C2.23169 7.44682 2.24537 7.43333 2.25951 7.42029L7.81056 2.23864C8.15143 1.92045 8.7041 1.92045 9.04497 2.23864C9.38585 2.55683 9.38585 3.07272 9.04497 3.39091L4.98017 7.18522L13.1271 7.18522C13.6092 7.18522 14 7.55001 14 8C14 8.44999 13.6092 8.81478 13.1271 8.81478L4.98017 8.81478L9.04497 12.6091C9.38585 12.9273 9.38585 13.4432 9.04497 13.7614C8.7041 14.0795 8.15143 14.0795 7.81055 13.7614Z" fill="white"/>
</svg>
