<svg width="23" height="24" viewBox="0 0 23 24" fill="none" xmlns="http://www.w3.org/2000/svg">
<path d="M7.4977 19C6.39644 19 5.50541 19.9 5.50541 21C5.50541 22.1 6.39644 23 7.4977 23C8.59897 23 9.5 22.1 9.5 21C9.5 19.9 8.59897 19 7.4977 19ZM18.4977 19C17.3964 19 16.5054 19.9 16.5054 21C16.5054 22.1 17.3964 23 18.4977 23C19.599 23 20.5 22.1 20.5 21C20.5 19.9 19.599 19 18.4977 19ZM8.35328 14H17.3641C18.115 14 18.7757 13.59 19.1161 12.97L22.5 6.84C22.7703 6.36 22.5901 5.75 22.1096 5.48C21.8784 5.35361 21.6065 5.32368 21.3533 5.39674C21.1001 5.4698 20.8861 5.63993 20.758 5.87L17.3641 12H8.78377L4.78919 3.57C4.70873 3.39931 4.58125 3.25504 4.42167 3.15409C4.2621 3.05315 4.07704 2.9997 3.88815 3H2.24627C1.69563 3 1.24512 3.45 1.24512 4C1.24512 4.55 1.69563 5 2.24627 5H3.24742L6.85156 12.59L5.5 15.03C4.76916 16.37 5.73027 18 7.25202 18H19.8169C20.3676 18 20.8181 17.55 20.8181 17C20.8181 16.45 20.3676 16 19.8169 16H7.25202L8.35328 14Z" fill="white"/>
</svg>
