<svg width="24" height="24" viewBox="0 0 24 24" fill="none" xmlns="http://www.w3.org/2000/svg">
<path d="M11 8C11.55 8 12 7.55 12 7V5H14C14.55 5 15 4.55 15 4C15 3.45 14.55 3 14 3H12V1C12 0.45 11.55 0 11 0C10.45 0 10 0.45 10 1V3H8C7.45 3 7 3.45 7 4C7 4.55 7.45 5 8 5H10V7C10 7.55 10.45 8 11 8ZM6 17C4.9 17 4.01 17.9 4.01 19C4.01 20.1 4.9 21 6 21C7.1 21 8 20.1 8 19C8 17.9 7.1 17 6 17ZM16 17C14.9 17 14.01 17.9 14.01 19C14.01 20.1 14.9 21 16 21C17.1 21 18 20.1 18 19C18 17.9 17.1 17 16 17ZM7.1 12H14.55C15.3 12 15.96 11.59 16.3 10.97L19.68 4.84C19.95 4.36 19.77 3.75 19.29 3.48C19.0591 3.35361 18.7875 3.32368 18.5346 3.39674C18.2817 3.4698 18.068 3.63993 17.94 3.87L14.55 10H7.53L3.54 1.57C3.45963 1.39931 3.3323 1.25504 3.17291 1.15409C3.01352 1.05315 2.82867 0.999696 2.64 1H1C0.45 1 0 1.45 0 2C0 2.55 0.45 3 1 3H2L5.6 10.59L4.25 13.03C3.52 14.37 4.48 16 6 16H17C17.55 16 18 15.55 18 15C18 14.45 17.55 14 17 14H6L7.1 12Z" fill="white"/>
</svg>
