<svg width="24" height="24" viewBox="0 0 24 24" fill="none" xmlns="http://www.w3.org/2000/svg">
<path fill-rule="evenodd" clip-rule="evenodd" d="M23.1669 23.1663C23.6504 22.6827 23.922 22.0269 23.922 21.3431V2.57812C23.9218 1.89442 23.6501 1.23878 23.1667 0.755335C22.6832 0.271886 22.0276 0.000198808 21.3439 0H2.57813C1.89446 0.000298134 1.23887 0.272017 0.755445 0.755445C0.272017 1.23887 0.000298134 1.89446 0 2.57812V21.3431C0 22.0269 0.271611 22.6827 0.755093 23.1663C1.23857 23.6498 1.89433 23.9215 2.57813 23.9216H21.3439C22.0277 23.9215 22.6834 23.6498 23.1669 23.1663ZM18.9298 4.88954C19.3913 4.85339 19.8482 5.00194 20.2001 5.30253L20.1986 5.30178C20.5501 5.60275 20.7679 6.03088 20.8041 6.49221C20.8403 6.95355 20.692 7.41041 20.3917 7.76253L11.9606 17.625C11.8115 17.7995 11.6295 17.9428 11.4249 18.0467C11.2203 18.1507 10.9973 18.2134 10.7685 18.231C10.5528 18.2584 10.3337 18.241 10.125 18.1799C9.91629 18.1189 9.72239 18.0155 9.55537 17.8763L4.13887 13.3538C3.97494 13.2207 3.83908 13.0565 3.7392 12.8705C3.63932 12.6845 3.57741 12.4805 3.55706 12.2703C3.53672 12.0602 3.55835 11.8481 3.62069 11.6464C3.68303 11.4447 3.78484 11.2574 3.92021 11.0954C4.05558 10.9334 4.2218 10.7999 4.40921 10.7027C4.59662 10.6055 4.80148 10.5465 5.01189 10.5292C5.22229 10.5119 5.43405 10.5365 5.63483 10.6018C5.83562 10.667 6.02144 10.7715 6.18149 10.9092L10.2244 14.2842L17.7394 5.49528C18.0402 5.14356 18.4684 4.92568 18.9298 4.88954Z" fill="#6F9B10"/>
</svg>
