<svg width="24" height="24" viewBox="0 0 24 24" fill="none" xmlns="http://www.w3.org/2000/svg">
<path d="M5.25 0.0416718H16.5C16.8315 0.0416718 17.1495 0.177758 17.3839 0.419992C17.6183 0.662227 17.75 0.990767 17.75 1.33334C17.75 1.67591 17.6183 2.00445 17.3839 2.24668C17.1495 2.48892 16.8315 2.62501 16.5 2.62501H5.25C4.91848 2.62501 4.60054 2.48892 4.36612 2.24668C4.1317 2.00445 4 1.67591 4 1.33334C4 0.990767 4.1317 0.662227 4.36612 0.419992C4.60054 0.177758 4.91848 0.0416718 5.25 0.0416718V0.0416718ZM5.25 10.375H16.5C16.8315 10.375 17.1495 10.5111 17.3839 10.7533C17.6183 10.9956 17.75 11.3241 17.75 11.6667C17.75 12.0092 17.6183 12.3378 17.3839 12.58C17.1495 12.8223 16.8315 12.9583 16.5 12.9583H5.25C4.91848 12.9583 4.60054 12.8223 4.36612 12.58C4.1317 12.3378 4 12.0092 4 11.6667C4 11.3241 4.1317 10.9956 4.36612 10.7533C4.60054 10.5111 4.91848 10.375 5.25 10.375V10.375ZM5.25 5.20834H16.5C16.8315 5.20834 17.1495 5.34442 17.3839 5.58666C17.6183 5.82889 17.75 6.15743 17.75 6.5C17.75 6.84258 17.6183 7.17112 17.3839 7.41335C17.1495 7.65559 16.8315 7.79167 16.5 7.79167H5.25C4.91848 7.79167 4.60054 7.65559 4.36612 7.41335C4.1317 7.17112 4 6.84258 4 6.5C4 6.15743 4.1317 5.82889 4.36612 5.58666C4.60054 5.34442 4.91848 5.20834 5.25 5.20834V5.20834ZM1.5 0.0416718C1.83152 0.0416718 2.14946 0.177758 2.38388 0.419992C2.6183 0.662227 2.75 0.990767 2.75 1.33334C2.75 1.67591 2.6183 2.00445 2.38388 2.24668C2.14946 2.48892 1.83152 2.62501 1.5 2.62501C1.16848 2.62501 0.850537 2.48892 0.616117 2.24668C0.381696 2.00445 0.25 1.67591 0.25 1.33334C0.25 0.990767 0.381696 0.662227 0.616117 0.419992C0.850537 0.177758 1.16848 0.0416718 1.5 0.0416718V0.0416718ZM1.5 10.375C1.83152 10.375 2.14946 10.5111 2.38388 10.7533C2.6183 10.9956 2.75 11.3241 2.75 11.6667C2.75 12.0092 2.6183 12.3378 2.38388 12.58C2.14946 12.8223 1.83152 12.9583 1.5 12.9583C1.16848 12.9583 0.850537 12.8223 0.616117 12.58C0.381696 12.3378 0.25 12.0092 0.25 11.6667C0.25 11.3241 0.381696 10.9956 0.616117 10.7533C0.850537 10.5111 1.16848 10.375 1.5 10.375ZM1.5 5.20834C1.83152 5.20834 2.14946 5.34442 2.38388 5.58666C2.6183 5.82889 2.75 6.15743 2.75 6.5C2.75 6.84258 2.6183 7.17112 2.38388 7.41335C2.14946 7.65559 1.83152 7.79167 1.5 7.79167C1.16848 7.79167 0.850537 7.65559 0.616117 7.41335C0.381696 7.17112 0.25 6.84258 0.25 6.5C0.25 6.15743 0.381696 5.82889 0.616117 5.58666C0.850537 5.34442 1.16848 5.20834 1.5 5.20834Z" fill="white" />
</svg>
