<svg width="32" height="32" viewBox="0 0 32 32" fill="none" xmlns="http://www.w3.org/2000/svg">
<rect width="32" height="32" rx="4" fill="#577A0C"/>
<path d="M27 8.65252C27 9.62123 26.6152 10.5503 25.9302 11.2352L24.6481 12.5163L19.4834 7.3518L20.7645 6.0698C21.4495 5.38482 22.3786 5 23.3473 5C24.3161 5 25.2451 5.38482 25.9302 6.0698C26.6152 6.75478 27 7.68381 27 8.65252Z" fill="white"/>
<path d="M12.4403 24.7255L23.3569 13.8075L18.1913 8.64295L7.27461 19.56C6.68951 20.1452 6.27446 20.8784 6.07383 21.6812L5.02736 25.865C4.98903 26.0181 4.991 26.1784 5.03308 26.3304C5.07516 26.4825 5.1559 26.621 5.26745 26.7326C5.379 26.8441 5.51755 26.9248 5.66959 26.9669C5.82163 27.009 5.98198 27.011 6.13501 26.9726L10.319 25.9262C11.1219 25.7256 11.8551 25.3106 12.4403 24.7255Z" fill="white"/>
</svg>
