<svg width="16" height="16" viewBox="0 0 16 16" fill="none" xmlns="http://www.w3.org/2000/svg">
<path d="M0 4C0 1.79086 1.79086 0 4 0H12C14.2091 0 16 1.79086 16 4V12C16 14.2091 14.2091 16 12 16H4C1.79086 16 0 14.2091 0 12V4Z" fill="#577A0C"/>
<path d="M13 4.66023C13 5.10056 12.8251 5.52284 12.5137 5.8342L11.931 6.41651L9.58334 4.069L10.1657 3.48627C10.477 3.17492 10.8994 3 11.3397 3C11.78 3 12.2023 3.17492 12.5137 3.48627C12.8251 3.79763 13 4.21991 13 4.66023Z" fill="white"/>
<path d="M6.38194 11.9661L11.3441 7.0034L8.99603 4.65588L4.03391 9.6182C3.76796 9.88418 3.5793 10.2174 3.4881 10.5824L3.01244 12.4841C2.99502 12.5537 2.99591 12.6265 3.01504 12.6956C3.03416 12.7648 3.07087 12.8277 3.12157 12.8784C3.17227 12.9291 3.23525 12.9658 3.30436 12.985C3.37347 13.0041 3.44635 13.005 3.51591 12.9876L5.41774 12.5119C5.78267 12.4207 6.11595 12.2321 6.38194 11.9661Z" fill="white"/>
</svg>
