<svg width="24" height="24" viewBox="0 0 24 24" fill="none" xmlns="http://www.w3.org/2000/svg">
<path fill-rule="evenodd" clip-rule="evenodd" d="M3.70695 2.29298C3.51835 2.11082 3.26575 2.01003 3.00355 2.01231C2.74135 2.01458 2.49054 2.11975 2.30513 2.30516C2.11972 2.49057 2.01456 2.74138 2.01228 3.00358C2.01 3.26578 2.11079 3.51838 2.29295 3.70698L20.2929 21.707C20.4816 21.8891 20.7342 21.9899 20.9964 21.9877C21.2585 21.9854 21.5094 21.8802 21.6948 21.6948C21.8802 21.5094 21.9853 21.2586 21.9876 20.9964C21.9899 20.7342 21.8891 20.4816 21.707 20.293L18.929 17.515C21.239 15.659 22.472 13.329 22.811 12.628C22.9059 12.4324 22.9553 12.2179 22.9553 12.0005C22.9553 11.7831 22.9059 11.5685 22.811 11.373C22.051 9.84264 21.0365 8.45253 19.811 7.26198C18.06 5.57698 15.483 3.99998 12 3.99998C9.95095 3.99998 8.20795 4.54698 6.76095 5.34698L3.70695 2.29298ZM8.24695 6.83298L9.96795 8.55398C10.7319 8.10299 11.6242 7.91878 12.5043 8.03033C13.3844 8.14187 14.2025 8.54284 14.8298 9.17016C15.4571 9.79747 15.8581 10.6155 15.9696 11.4957C16.0811 12.3758 15.8969 13.268 15.446 14.032L17.5049 16.091C19.361 14.661 20.463 12.815 20.888 12C20.2437 10.7789 19.4119 9.66636 18.423 8.70298C16.93 7.26498 14.825 5.99998 12 5.99998C10.7022 5.99349 9.41945 6.27778 8.24595 6.83198L8.24695 6.83298ZM13.932 12.518C14.023 12.1788 14.0231 11.8216 13.9322 11.4824C13.8414 11.1431 13.6628 10.8338 13.4145 10.5854C13.1662 10.3371 12.8568 10.1585 12.5176 10.0677C12.1783 9.97686 11.8211 9.97696 11.482 10.068L13.932 12.518ZM4.64995 8.16098C4.74976 8.24634 4.83178 8.35051 4.89133 8.46757C4.95087 8.58463 4.98678 8.71226 4.99699 8.8432C5.00721 8.97413 4.99153 9.10579 4.95086 9.23067C4.91019 9.35554 4.84532 9.47118 4.75995 9.57098C4.12278 10.3174 3.57009 11.1321 3.11195 12C3.75618 13.2211 4.58795 14.3336 5.57695 15.297C7.06995 16.735 9.17495 18 12 18C12.64 18 13.238 17.936 13.8 17.82C14.0599 17.7669 14.3302 17.8193 14.5515 17.9656C14.7728 18.1119 14.9269 18.3401 14.98 18.6C15.033 18.8599 14.9806 19.1302 14.8343 19.3515C14.6881 19.5728 14.4599 19.7269 14.2 19.78C13.476 19.9276 12.7388 20.0013 12 20C8.51695 20 5.93995 18.423 4.18995 16.738C2.96414 15.5478 1.94938 14.158 1.18895 12.628C1.09377 12.432 1.04431 12.2169 1.04431 11.999C1.04431 11.7811 1.09377 11.566 1.18895 11.37C1.43195 10.87 2.09595 9.60998 3.23895 8.27198C3.32424 8.1721 3.42836 8.08999 3.54538 8.03036C3.6624 7.97072 3.79002 7.93472 3.92096 7.92442C4.05189 7.91411 4.18358 7.92969 4.30849 7.97028C4.4334 8.01087 4.54909 8.07567 4.64895 8.16098H4.64995Z" fill="#828282"/>
</svg>
