<svg width="24" height="24" viewBox="0 0 24 24" fill="none" xmlns="http://www.w3.org/2000/svg">
<path fill-rule="evenodd" clip-rule="evenodd" d="M5.57703 15.297C4.58804 14.3336 3.75627 13.2211 3.11203 12C3.75627 10.7789 4.58804 9.66637 5.57703 8.703C7.07003 7.265 9.17502 6 12 6C14.825 6 16.93 7.265 18.423 8.703C19.412 9.66637 20.2438 10.7789 20.888 12C20.2438 13.2211 19.412 14.3336 18.423 15.297C16.93 16.735 14.825 18 12 18C9.17502 18 7.07003 16.735 5.57703 15.297ZM12 4C8.51702 4 5.94003 5.577 4.19003 7.262C2.9642 8.4522 1.94943 9.84196 1.18903 11.372C1.09396 11.5675 1.04456 11.7821 1.04456 11.9995C1.04456 12.2169 1.09396 12.4315 1.18903 12.627C1.94904 14.1573 2.96346 15.5474 4.18903 16.738C5.94003 18.423 8.51802 20 12 20C15.483 20 18.06 18.423 19.81 16.738C21.0359 15.5478 22.0507 14.1581 22.811 12.628C22.9061 12.4325 22.9555 12.2179 22.9555 12.0005C22.9555 11.7831 22.9061 11.5685 22.811 11.373C22.051 9.84266 21.0366 8.45255 19.811 7.262C18.06 5.577 15.483 4 12 4ZM10 12C10 11.4696 10.2107 10.9609 10.5858 10.5858C10.9609 10.2107 11.4696 10 12 10C12.5305 10 13.0392 10.2107 13.4142 10.5858C13.7893 10.9609 14 11.4696 14 12C14 12.5304 13.7893 13.0391 13.4142 13.4142C13.0392 13.7893 12.5305 14 12 14C11.4696 14 10.9609 13.7893 10.5858 13.4142C10.2107 13.0391 10 12.5304 10 12ZM12 8C10.9392 8 9.92174 8.42143 9.1716 9.17157C8.42145 9.92172 8.00003 10.9391 8.00003 12C8.00003 13.0609 8.42145 14.0783 9.1716 14.8284C9.92174 15.5786 10.9392 16 12 16C13.0609 16 14.0783 15.5786 14.8285 14.8284C15.5786 14.0783 16 13.0609 16 12C16 10.9391 15.5786 9.92172 14.8285 9.17157C14.0783 8.42143 13.0609 8 12 8Z" fill="#828282"/>
</svg>
