<svg width="19" height="16" viewBox="0 0 19 16" fill="none" xmlns="http://www.w3.org/2000/svg">
<path d="M8.00001 5.5C8.00001 6.95869 8.57947 8.35764 9.61092 9.38909C10.6424 10.4205 12.0413 11 13.5 11C14.9587 11 16.3576 10.4205 17.3891 9.38909C18.4205 8.35764 19 6.95869 19 5.5C19 4.04131 18.4205 2.64236 17.3891 1.61091C16.3576 0.579463 14.9587 0 13.5 0C12.0413 0 10.6424 0.579463 9.61092 1.61091C8.57947 2.64236 8.00001 4.04131 8.00001 5.5ZM16.5 2C16.6326 2 16.7598 2.05268 16.8536 2.14645C16.9473 2.24021 17 2.36739 17 2.5V4.5C17 4.63261 16.9473 4.75979 16.8536 4.85355C16.7598 4.94732 16.6326 5 16.5 5H14.5C14.3674 5 14.2402 4.94732 14.1465 4.85355C14.0527 4.75979 14 4.63261 14 4.5C14 4.36739 14.0527 4.24021 14.1465 4.14645C14.2402 4.05268 14.3674 4 14.5 4H15.5C15.2674 3.68928 14.9654 3.4371 14.6183 3.26351C14.2711 3.08991 13.8882 2.99969 13.5 3C12.667 3 11.928 3.407 11.473 4.036C11.3941 4.14012 11.2775 4.2092 11.1483 4.22845C11.019 4.2477 10.8874 4.2156 10.7815 4.13901C10.6756 4.06242 10.604 3.94743 10.5818 3.81866C10.5597 3.68988 10.5888 3.55756 10.663 3.45C10.9872 3.00083 11.4135 2.63513 11.9067 2.38303C12.4 2.13093 12.9461 1.99965 13.5 2C14.48 2 15.365 2.403 16 3.05V2.5C16 2.36739 16.0527 2.24021 16.1465 2.14645C16.2402 2.05268 16.3674 2 16.5 2ZM11 7.95V8.5C11 8.63261 10.9473 8.75979 10.8536 8.85355C10.7598 8.94732 10.6326 9 10.5 9C10.3674 9 10.2402 8.94732 10.1465 8.85355C10.0527 8.75979 10 8.63261 10 8.5V6.5C10 6.36739 10.0527 6.24021 10.1465 6.14645C10.2402 6.05268 10.3674 6 10.5 6H12.5C12.6326 6 12.7598 6.05268 12.8536 6.14645C12.9473 6.24021 13 6.36739 13 6.5C13 6.63261 12.9473 6.75979 12.8536 6.85355C12.7598 6.94732 12.6326 7 12.5 7H11.5C11.956 7.608 12.683 8 13.5 8C14.266 8 14.952 7.656 15.411 7.112C15.453 7.06058 15.5047 7.01803 15.5633 6.98683C15.6219 6.95563 15.6861 6.9364 15.7522 6.93026C15.8182 6.92412 15.8849 6.9312 15.9482 6.95109C16.0115 6.97097 16.0702 7.00325 16.1209 7.04607C16.1716 7.08888 16.2133 7.14135 16.2435 7.20044C16.2738 7.25952 16.2919 7.32403 16.297 7.3902C16.302 7.45638 16.2938 7.52289 16.2729 7.58586C16.2519 7.64884 16.2187 7.70701 16.175 7.757C15.8468 8.14676 15.4373 8.45999 14.9751 8.67472C14.513 8.88944 14.0096 9.00047 13.5 9C13.0343 9.00063 12.5732 8.90805 12.1439 8.72772C11.7145 8.54739 11.3256 8.28296 11 7.95V7.95ZM4.00001 11H10.034C9.22496 10.4887 8.53811 9.80597 8.02201 9H4.00001L3.88301 9.007C3.62991 9.0371 3.39786 9.16271 3.23427 9.35817C3.07068 9.55362 2.9879 9.80416 3.00283 10.0586C3.01777 10.313 3.1293 10.5522 3.31464 10.7272C3.49997 10.9021 3.74513 10.9997 4.00001 11V11ZM1.00001 4H7.17401C7.01948 4.65468 6.96719 5.32933 7.01901 6H1.00001C0.745126 5.99972 0.499973 5.90212 0.314637 5.72715C0.129301 5.55218 0.0177711 5.31305 0.00283393 5.05861C-0.0121032 4.80416 0.0706804 4.55362 0.234271 4.35817C0.397861 4.16271 0.62991 4.0371 0.883006 4.007L1.00001 4ZM5.88301 14.007L6.00001 14H10C10.2549 14.0003 10.5 14.0979 10.6854 14.2728C10.8707 14.4478 10.9822 14.687 10.9972 14.9414C11.0121 15.1958 10.9293 15.4464 10.7657 15.6418C10.6022 15.8373 10.3701 15.9629 10.117 15.993L10 16H6.00001C5.74513 15.9997 5.49997 15.9021 5.31464 15.7272C5.1293 15.5522 5.01777 15.313 5.00283 15.0586C4.9879 14.8042 5.07068 14.5536 5.23427 14.3582C5.39786 14.1627 5.62991 14.0371 5.88301 14.007V14.007Z" fill="black"/>
</svg>
