<svg width="22" height="21" viewBox="0 0 22 21" fill="none" xmlns="http://www.w3.org/2000/svg">
<path d="M4.71431 0.285645C5.2666 0.285645 5.71431 0.73336 5.71431 1.28564V2.57136H20.6C21.1523 2.57136 21.6 3.01907 21.6 3.57136C21.6 4.12364 21.1523 4.57136 20.6 4.57136H5.71431V5.85707C5.71431 6.40936 5.2666 6.85707 4.71431 6.85707C4.16203 6.85707 3.71431 6.40936 3.71431 5.85707V4.57136H1.40002C0.84774 4.57136 0.400024 4.12364 0.400024 3.57136C0.400024 3.01907 0.84774 2.57136 1.40002 2.57136H3.71431V1.28564C3.71431 0.73336 4.16203 0.285645 4.71431 0.285645Z" fill="white"/>
<path d="M1.40002 9.4285C0.84774 9.4285 0.400024 9.87622 0.400024 10.4285C0.400024 10.9808 0.84774 11.4285 1.40002 11.4285H16.2857V12.7142C16.2857 13.2665 16.7335 13.7142 17.2857 13.7142C17.838 13.7142 18.2857 13.2665 18.2857 12.7142V11.4285H20.6C21.1523 11.4285 21.6 10.9808 21.6 10.4285C21.6 9.87622 21.1523 9.4285 20.6 9.4285H18.2857V8.14279C18.2857 7.5905 17.838 7.14279 17.2857 7.14279C16.7335 7.14279 16.2857 7.5905 16.2857 8.14279V9.4285H1.40002Z" fill="white"/>
<path d="M8.14288 13.9999C8.69517 13.9999 9.14288 14.4476 9.14288 14.9999V16.2856H20.6C21.1523 16.2856 21.6 16.7334 21.6 17.2856C21.6 17.8379 21.1523 18.2856 20.6 18.2856H9.14288V19.5714C9.14288 20.1236 8.69517 20.5714 8.14288 20.5714C7.5906 20.5714 7.14288 20.1236 7.14288 19.5714V18.2856H1.40002C0.84774 18.2856 0.400024 17.8379 0.400024 17.2856C0.400024 16.7334 0.84774 16.2856 1.40002 16.2856H7.14288V14.9999C7.14288 14.4476 7.5906 13.9999 8.14288 13.9999Z" fill="white"/>
</svg>
