<svg width="45" height="32" viewBox="0 0 45 32" fill="none" xmlns="http://www.w3.org/2000/svg">
<path d="M15.5353 23.3815L15.5182 23.4013L15.5063 23.3871C15.606 22.9307 15.6455 22.395 15.6117 21.7413C15.5686 21.2339 15.4842 20.7871 15.4051 20.3687C15.2116 19.3443 15.0504 18.4911 15.6083 17.3401C15.4473 17.4961 15.2907 17.6402 15.1391 17.7796C14.3304 18.5234 13.6664 19.1341 13.2696 20.7135C12.0374 19.0665 10.6736 16.7988 9.87825 13.821C8.8632 9.40078 11.359 3.8563 13.774 0C13.0456 3.56436 14.0373 5.95333 15.2282 8.8219L15.2283 8.82213L15.2284 8.82242C15.7146 9.99359 16.234 11.2447 16.683 12.6884C18.0334 17.5375 17.056 19.8161 15.9769 22.3317C15.8297 22.6748 15.6806 23.0224 15.5353 23.3815Z" fill="white"/>
<path d="M12.0268 22.7949C12.0523 22.7822 12.0764 22.7703 12.0991 22.7593C11.1173 21.9233 10.0902 21.3829 7.86834 21.4674C7.28463 21.5062 6.7697 21.5863 6.2877 21.6613C5.10726 21.8449 4.12418 21.9978 2.81117 21.4386C3.1779 21.771 3.57551 22.1063 4.00336 22.4197C2.71951 22.7256 1.56806 22.9232 0 22.511C1.83565 23.6823 4.42242 24.9027 6.82871 24.7285C9.24006 24.4195 10.9757 23.4071 11.8106 22.9201L11.8114 22.9196C11.8916 22.8728 11.9635 22.8309 12.0268 22.7949Z" fill="white"/>
<path d="M25.9232 12.5127C24.9292 12.7524 23.8323 13.0364 22.8091 13.4811C22.8407 13.3753 22.8722 13.2679 22.9035 13.1587C23.191 12.0615 23.3756 11.0749 23.5484 10.1514L23.5486 10.1505L23.5489 10.1487L23.5489 10.1486C23.9724 7.88496 24.3251 5.99979 25.9477 3.79026C23.3843 5.73637 20.1572 8.59144 19.1016 12.1654C18.0569 15.7023 18.298 18.6672 18.4141 20.0936L18.4254 20.2341C18.4277 20.2628 18.4299 20.2907 18.4321 20.3179C18.411 20.5593 18.3982 20.772 18.3876 20.9497L18.3876 20.95L18.3876 20.9503L18.3874 20.9535L18.3873 20.9546C18.3814 21.0536 18.3762 21.1416 18.3705 21.2175C19.9555 20.7829 21.2362 20.0951 22.5906 17.7336C22.9277 17.1016 23.1732 16.5121 23.403 15.9603C23.9659 14.609 24.4347 13.4836 25.9232 12.5127Z" fill="white"/>
<path d="M12.7544 23.7821C11.2818 24.1595 9.74703 24.9389 7.7973 26.5885C7.04409 27.2595 6.43014 27.9019 5.85544 28.5033C4.44797 29.976 3.2758 31.2025 0.869802 32C1.25523 31.9873 1.63377 31.9819 2.00893 31.9766C4.63875 31.9393 7.10087 31.9044 10.5834 29.3453C11.5772 28.6952 12.5325 27.5063 13.3074 26.3479C12.4819 26.6682 11.9505 26.6384 11.319 26.603C11.1855 26.5955 11.0474 26.5878 10.9011 26.583C11.7473 26.3536 12.1617 25.9422 12.6594 25.4482L12.6595 25.448C12.8627 25.2463 13.0797 25.0309 13.3457 24.8084C13.7044 24.5246 14.0229 24.3226 14.319 24.18C13.8619 24.1278 13.3182 24.0172 12.7544 23.7821Z" fill="white"/>
<path d="M16.3243 31.6265H17.2372V27.4416H16.3838V30.1994L14.7393 27.4416H13.8264V31.6265H14.6798V28.8716L16.3243 31.6265Z" fill="white"/>
<path d="M18.0312 31.6265H18.8847V29.9543H20.1634V29.1167H18.8847V28.2792H21.0168V27.4416H18.0312V31.6265Z" fill="white"/>
<path d="M21.3707 31.6265H22.1885V27.2578H21.3707V31.6265Z" fill="white"/>
<path fill-rule="evenodd" clip-rule="evenodd" d="M25.76 30.6897C25.8452 30.4874 25.8878 30.2695 25.8878 30.036C25.8878 29.787 25.8452 29.5613 25.76 29.3589C25.6747 29.1547 25.5587 28.9805 25.412 28.8366C25.2653 28.6907 25.0928 28.5788 24.8946 28.501C24.6983 28.4212 24.4872 28.3813 24.2612 28.3813C24.0372 28.3813 23.826 28.4232 23.6278 28.5068C23.4315 28.5905 23.259 28.7062 23.1104 28.8541C22.9637 29 22.8477 29.1741 22.7624 29.3765C22.6772 29.5788 22.6346 29.7986 22.6346 30.036C22.6346 30.2695 22.6772 30.4874 22.7624 30.6897C22.8477 30.8901 22.9637 31.0642 23.1104 31.2121C23.259 31.358 23.4315 31.4737 23.6278 31.5593C23.826 31.643 24.0372 31.6848 24.2612 31.6848C24.4872 31.6848 24.6983 31.643 24.8946 31.5593C25.0928 31.4737 25.2653 31.358 25.412 31.2121C25.5587 31.0642 25.6747 30.8901 25.76 30.6897ZM25.0046 29.6887C25.0482 29.7918 25.07 29.9076 25.07 30.036C25.07 30.1625 25.0482 30.2782 25.0046 30.3833C24.963 30.4883 24.9055 30.5778 24.8321 30.6518C24.7588 30.7257 24.6726 30.7831 24.5734 30.8239C24.4763 30.8648 24.3722 30.8852 24.2612 30.8852C24.1502 30.8852 24.0451 30.8638 23.946 30.821C23.8488 30.7763 23.7636 30.716 23.6902 30.6401C23.6189 30.5642 23.5624 30.4747 23.5207 30.3716C23.4791 30.2685 23.4583 30.1566 23.4583 30.036C23.4583 29.9076 23.4791 29.7918 23.5207 29.6887C23.5624 29.5837 23.6189 29.4942 23.6902 29.4202C23.7636 29.3444 23.8488 29.287 23.946 29.2481C24.0451 29.2072 24.1502 29.1868 24.2612 29.1868C24.3722 29.1868 24.4763 29.2072 24.5734 29.2481C24.6726 29.287 24.7588 29.3444 24.8321 29.4202C24.9055 29.4942 24.963 29.5837 25.0046 29.6887Z" fill="white"/>
<path d="M30.2622 30.9611C30.3256 30.8152 30.3573 30.6605 30.3573 30.4971V28.5068H29.5485V30.4971C29.5485 30.5516 29.5376 30.6031 29.5158 30.6518C29.494 30.6984 29.4642 30.7403 29.4266 30.7772C29.3909 30.8123 29.3483 30.8405 29.2987 30.8619C29.2491 30.8813 29.1966 30.8911 29.1411 30.8911C29.0856 30.8911 29.033 30.8813 28.9835 30.8619C28.9359 30.8405 28.8933 30.8123 28.8556 30.7772C28.8199 30.7403 28.7912 30.6984 28.7694 30.6518C28.7476 30.6031 28.7367 30.5516 28.7367 30.4971V28.5068H27.9278V30.4971C27.9278 30.5516 27.9169 30.6031 27.8951 30.6518C27.8753 30.6984 27.8465 30.7403 27.8089 30.7772C27.7712 30.8123 27.7276 30.8405 27.678 30.8619C27.6284 30.8813 27.5759 30.8911 27.5204 30.8911C27.4649 30.8911 27.4124 30.8813 27.3628 30.8619C27.3152 30.8405 27.2726 30.8123 27.2349 30.7772C27.1992 30.7403 27.1705 30.6984 27.1487 30.6518C27.1289 30.6031 27.1189 30.5516 27.1189 30.4971V28.5068H26.3071V30.4971C26.3071 30.6605 26.3388 30.8152 26.4023 30.9611C26.4657 31.1051 26.552 31.2305 26.661 31.3375C26.772 31.4446 26.9009 31.5292 27.0476 31.5914C27.1943 31.6537 27.3519 31.6848 27.5204 31.6848C27.6731 31.6848 27.8178 31.6595 27.9546 31.6089C28.0933 31.5564 28.2182 31.4805 28.3293 31.3813C28.4423 31.4805 28.5681 31.5564 28.7069 31.6089C28.8457 31.6595 28.9904 31.6848 29.1411 31.6848C29.3096 31.6848 29.4672 31.6537 29.6139 31.5914C29.7626 31.5292 29.8915 31.4446 30.0005 31.3375C30.1115 31.2305 30.1987 31.1051 30.2622 30.9611Z" fill="white"/>
<path fill-rule="evenodd" clip-rule="evenodd" d="M32.3081 30.8823C32.2764 30.8784 32.2447 30.8716 32.213 30.8619L33.7355 29.0613C33.6602 28.9562 33.5729 28.8619 33.4738 28.7782C33.3747 28.6926 33.2676 28.6206 33.1527 28.5623C33.0397 28.5039 32.9197 28.4591 32.7928 28.428C32.666 28.3969 32.5361 28.3813 32.4033 28.3813C32.1793 28.3813 31.9681 28.4212 31.7699 28.501C31.5736 28.5807 31.4011 28.6926 31.2524 28.8366C31.1057 28.9805 30.9898 29.1547 30.9045 29.3589C30.8193 29.5632 30.7766 29.7889 30.7766 30.036C30.7766 30.2772 30.8193 30.499 30.9045 30.7014C30.9898 30.9018 31.1057 31.0749 31.2524 31.2208C31.4011 31.3667 31.5736 31.4805 31.7699 31.5623C31.9681 31.644 32.1793 31.6848 32.4033 31.6848C32.5361 31.6848 32.665 31.6693 32.7899 31.6381C32.9167 31.6089 33.0367 31.5652 33.1497 31.5068C33.2647 31.4484 33.3707 31.3774 33.4679 31.2938C33.567 31.2101 33.6542 31.1158 33.7296 31.0107L33.1348 30.4241C33.1031 30.4942 33.0615 30.5584 33.0099 30.6167C32.9604 30.6732 32.9029 30.7218 32.8374 30.7626C32.774 30.8016 32.7056 30.8317 32.6323 30.8531C32.5589 30.8745 32.4826 30.8852 32.4033 30.8852C32.3716 30.8852 32.3398 30.8842 32.3081 30.8823ZM32.5163 29.1926C32.5539 29.1965 32.5916 29.2053 32.6293 29.2189L31.6836 30.4504C31.6678 30.4232 31.6549 30.392 31.645 30.357C31.6351 30.322 31.6261 30.286 31.6182 30.249C31.6123 30.2101 31.6073 30.1722 31.6033 30.1352C31.6014 30.0982 31.6004 30.0652 31.6004 30.036C31.6004 29.9056 31.6212 29.7889 31.6628 29.6858C31.7044 29.5807 31.7609 29.4912 31.8323 29.4173C31.9057 29.3434 31.9909 29.287 32.0881 29.2481C32.1872 29.2072 32.2923 29.1868 32.4033 29.1868C32.4429 29.1868 32.4806 29.1887 32.5163 29.1926Z" fill="white"/>
<path d="M34.1459 31.6265H34.9577V29.9047C34.9577 29.821 34.9736 29.7422 35.0053 29.6683C35.037 29.5944 35.0806 29.5302 35.1361 29.4757C35.1916 29.4212 35.2571 29.3784 35.3324 29.3473C35.4077 29.3161 35.488 29.3006 35.5733 29.3006H36.2899V28.5068H35.5733C35.3949 28.5068 35.2224 28.5389 35.0558 28.6031C34.8893 28.6654 34.7406 28.7549 34.6098 28.8716L34.3421 28.501H34.1459V31.6265Z" fill="white"/>
<path d="M36.5249 31.6265H38.3805C38.5193 31.6265 38.6501 31.6012 38.773 31.5506C38.8959 31.4981 39.003 31.427 39.0942 31.3375C39.1854 31.2461 39.2577 31.1411 39.3113 31.0224C39.3648 30.9018 39.3915 30.7724 39.3915 30.6342C39.3915 30.4981 39.3648 30.3726 39.3113 30.2578C39.2577 30.143 39.1854 30.0447 39.0942 29.963C39.003 29.8813 38.8959 29.8181 38.773 29.7733C38.6501 29.7267 38.5193 29.7033 38.3805 29.7033H37.5359C37.4804 29.7033 37.4328 29.6839 37.3932 29.6449C37.3535 29.6041 37.3337 29.5554 37.3337 29.499C37.3337 29.4446 37.3535 29.3979 37.3932 29.3589C37.4328 29.32 37.4804 29.3006 37.5359 29.3006H39.1804V28.5068H37.5359C37.3952 28.5068 37.2633 28.5331 37.1404 28.5856C37.0175 28.6362 36.9105 28.7062 36.8193 28.7957C36.7281 28.8852 36.6557 28.9903 36.6022 29.1109C36.5506 29.2315 36.5249 29.3609 36.5249 29.499C36.5249 29.6372 36.5506 29.7665 36.6022 29.8872C36.6557 30.0078 36.7281 30.1138 36.8193 30.2053C36.9105 30.2947 37.0175 30.3658 37.1404 30.4183C37.2633 30.4708 37.3952 30.4971 37.5359 30.4971H38.3805C38.436 30.4971 38.4836 30.5058 38.5232 30.5233C38.5629 30.5409 38.5827 30.5778 38.5827 30.6342C38.5827 30.6887 38.5629 30.7354 38.5232 30.7743C38.4836 30.8132 38.436 30.8327 38.3805 30.8327H36.5249V31.6265Z" fill="white"/>
<path d="M11.6938 21.1391C11.7002 21.1427 11.7065 21.1462 11.7127 21.1497L11.7136 21.139L11.7276 21.1389C11.7236 21.1311 11.7196 21.1234 11.7156 21.1156C11.7915 20.1979 11.6691 19.3649 10.691 18.0814C10.421 17.7468 10.1556 17.4705 9.90714 17.2118L9.90698 17.2117C9.29842 16.578 8.79159 16.0503 8.56863 15.0334C8.55607 15.1385 8.54256 15.2444 8.52896 15.351C8.41578 16.2388 8.29625 17.1764 8.66232 18.1471C8.34343 17.9842 7.99065 17.8234 7.59863 17.6638C6.92649 17.4108 6.31195 17.2354 5.73667 17.0712C4.32782 16.6691 3.15453 16.3343 1.94778 15.0907C1.99321 15.1857 2.03872 15.2816 2.08452 15.3781L2.08544 15.38C2.95157 17.2046 3.92133 19.2475 6.425 20.294C8.57296 21.1919 10.5292 21.1584 11.4702 21.1423C11.5527 21.1409 11.6274 21.1396 11.6938 21.1391Z" fill="white"/>
<path d="M16.859 23.1953L16.8979 23.2141C18.6694 24.0715 24.4911 26.8893 29.3097 26.9861C33.5347 27.1402 36.3635 25.4528 38.878 23.9528C39.1976 23.7622 39.5121 23.5746 39.8237 23.3942C39.5078 23.4781 39.1385 23.5818 38.7276 23.6972C36.429 24.3427 32.8284 25.3539 29.9902 25.2999C27.0347 25.2438 24.8777 24.4561 23.3889 23.9123C22.9171 23.74 22.5125 23.5923 22.1707 23.5L22.1396 23.4916C24.6714 22.6273 27.2599 22.1007 32.6334 22.3769C34.042 22.4683 35.2764 22.6007 36.4318 22.7246C36.9401 22.7791 37.3078 22.8232 37.6036 22.8587C38.4724 22.9629 38.7218 22.9929 40.0971 22.9937C41.1213 22.9943 42.0091 22.8074 43.1702 22.2096C43.6483 21.9635 44.6185 21.3348 45 21.0672C40.9542 22.3398 38.0287 21.8015 34.5159 21.155C33.0815 20.8911 31.5491 20.6091 29.8027 20.4251C23.1433 19.8895 19.9598 21.1535 16.859 23.1953Z" fill="white"/>
</svg>
