<svg width="355" height="267" viewBox="0 0 355 267" fill="none" xmlns="http://www.w3.org/2000/svg">
<path d="M145.514 164.513C144.859 154.774 141.613 129.033 150.694 97.7035C159.014 69 184.448 46.0702 204.652 30.4405C186.641 55.4319 188.482 75.2564 180.658 105.681C171.272 139.053 160.044 152.601 145.514 164.513Z" fill="#AE9127"/>
<path d="M144.932 170.403C145.411 163.872 145.501 146.166 155.732 128.44C165.962 110.714 187.183 104.738 204.458 100.492C187.936 111.474 187.355 124.917 178.193 142.423C167.518 161.389 157.424 166.912 144.932 170.403Z" fill="#289F25"/>
<path d="M92.5762 169.772C86.2877 169.794 69.4549 170.939 50.7834 162.987C30 154.134 22.628 136.405 15.4961 121.197C28.8907 135.263 41.7625 134.853 60.0334 141.863C79.9623 150.128 87.0195 158.804 92.5762 169.772Z" fill="#289F25"/>
<path d="M95.0343 183.014C89.4084 186.255 74.9262 195.864 53.9653 198.601C35 200 14.6123 190.199 0.144645 180.792C19.6203 186.009 30.9423 179.062 51.0432 175.72C73.2974 172.607 84.2297 176.441 95.0343 183.014Z" fill="#B58B21"/>
<path d="M95.5034 182.786C90.8442 185.095 78.7308 192.144 62.2552 192.614C46.0001 191.5 32.6041 181.697 22.3009 172.179C36.875 178.504 46.2916 173.485 62.1591 172.41C79.6709 171.732 87.766 176.071 95.5034 182.786Z" fill="#21B54A"/>
<path d="M92.4581 169.859C89.1392 167.953 79.9015 163.425 72.6574 153.537C64.2048 142 66.4833 130.933 67.6783 120.737C70.1533 132.24 77.0654 135.948 84.4056 145.216C92.2101 155.652 93.1025 162.379 92.4581 169.859Z" fill="#DC6421"/>
<path d="M133.326 186.438C133.222 186.387 133.119 186.336 133.019 186.287C157.458 169.889 182.549 159.738 235.035 164.039C248.8 165.517 260.877 167.782 272.182 169.901C299.868 175.093 322.925 179.417 354.812 169.196C351.806 171.345 344.159 176.394 340.391 178.371C331.239 183.172 324.242 184.673 316.17 184.668C301.64 184.659 303.056 184.23 287.283 182.507C278.176 181.512 268.447 180.449 257.345 179.715C214.994 177.496 194.592 181.726 174.638 188.667L174.883 188.734C186.076 191.813 205.838 202.596 236.512 203.19C262.881 203.701 297.599 192.325 314.016 187.885C292.232 200.735 268.68 218.127 231.149 216.732C193.171 215.954 147.288 193.324 133.326 186.438Z" fill="#8A21DC"/>
<path fill-rule="evenodd" clip-rule="evenodd" d="M122.586 187.783C122.541 187.836 122.496 187.889 122.452 187.941C122.421 187.904 122.389 187.866 122.358 187.827C123.143 184.162 123.454 179.86 123.188 174.61C122.849 170.535 122.183 166.946 121.56 163.586C120.035 155.359 118.764 148.506 123.161 139.263C121.893 140.515 120.658 141.673 119.464 142.792L119.464 142.792C113.09 148.766 107.857 153.67 104.729 166.355C95.0172 153.128 84.2687 134.916 78.0001 111C70 75.5 89.6705 30.9709 108.705 0C102.964 28.6263 110.78 47.8127 120.166 70.8508C123.998 80.258 128.092 90.3074 131.632 101.904C142.275 140.848 134.572 159.148 126.067 179.352C124.907 182.108 123.732 184.899 122.586 187.783Z" fill="#8A21DC"/>
<path fill-rule="evenodd" clip-rule="evenodd" d="M100.668 191C89.0626 194.031 76.9659 200.291 61.5991 213.539C55.6627 218.928 50.8239 224.087 46.2943 228.917C35.2013 240.745 25.963 250.595 7 257C10.0377 256.898 13.0213 256.855 15.978 256.812C36.7049 256.513 56.1102 256.232 83.5575 235.679C91.3906 230.458 98.9199 220.91 105.027 211.607C98.5206 214.179 94.3329 213.94 89.3559 213.655L89.3557 213.655C88.3029 213.595 87.2148 213.533 86.062 213.495C92.731 211.653 95.9975 208.348 99.9198 204.38C101.521 202.76 103.232 201.03 105.329 199.243C108.156 196.963 110.666 195.341 113 194.196C109.397 193.776 105.112 192.888 100.668 191Z" fill="#DCC921"/>
<path d="M136 254H128.805L115.844 231.875V254H109.117V220.391H116.312L129.273 242.539V220.391H136V254ZM148.984 254H142.258V220.391H165.789V227.117H148.984V233.844H159.062V240.57H148.984V254ZM175.023 254H168.578V218.914H175.023V254ZM204.18 241.227C204.18 243.102 203.844 244.852 203.172 246.477C202.5 248.086 201.586 249.484 200.43 250.672C199.273 251.844 197.914 252.773 196.352 253.461C194.805 254.133 193.141 254.469 191.359 254.469C189.594 254.469 187.93 254.133 186.367 253.461C184.82 252.773 183.461 251.844 182.289 250.672C181.133 249.484 180.219 248.086 179.547 246.477C178.875 244.852 178.539 243.102 178.539 241.227C178.539 239.32 178.875 237.555 179.547 235.93C180.219 234.305 181.133 232.906 182.289 231.734C183.461 230.547 184.82 229.617 186.367 228.945C187.93 228.273 189.594 227.938 191.359 227.938C193.141 227.938 194.805 228.258 196.352 228.898C197.914 229.523 199.273 230.422 200.43 231.594C201.586 232.75 202.5 234.148 203.172 235.789C203.844 237.414 204.18 239.227 204.18 241.227ZM197.734 241.227C197.734 240.195 197.562 239.266 197.219 238.438C196.891 237.594 196.438 236.875 195.859 236.281C195.281 235.672 194.602 235.211 193.82 234.898C193.055 234.57 192.234 234.406 191.359 234.406C190.484 234.406 189.656 234.57 188.875 234.898C188.109 235.211 187.438 235.672 186.859 236.281C186.297 236.875 185.852 237.594 185.523 238.438C185.195 239.266 185.031 240.195 185.031 241.227C185.031 242.195 185.195 243.094 185.523 243.922C185.852 244.75 186.297 245.469 186.859 246.078C187.438 246.688 188.109 247.172 188.875 247.531C189.656 247.875 190.484 248.047 191.359 248.047C192.234 248.047 193.055 247.883 193.82 247.555C194.602 247.227 195.281 246.766 195.859 246.172C196.438 245.578 196.891 244.859 197.219 244.016C197.562 243.172 197.734 242.242 197.734 241.227ZM239.406 244.93C239.406 246.242 239.156 247.484 238.656 248.656C238.156 249.812 237.469 250.82 236.594 251.68C235.734 252.539 234.719 253.219 233.547 253.719C232.391 254.219 231.148 254.469 229.82 254.469C228.633 254.469 227.492 254.266 226.398 253.859C225.305 253.438 224.312 252.828 223.422 252.031C222.547 252.828 221.562 253.438 220.469 253.859C219.391 254.266 218.25 254.469 217.047 254.469C215.719 254.469 214.477 254.219 213.32 253.719C212.164 253.219 211.148 252.539 210.273 251.68C209.414 250.82 208.734 249.812 208.234 248.656C207.734 247.484 207.484 246.242 207.484 244.93V228.945H213.883V244.93C213.883 245.367 213.961 245.781 214.117 246.172C214.289 246.547 214.516 246.883 214.797 247.18C215.094 247.461 215.43 247.688 215.805 247.859C216.195 248.016 216.609 248.094 217.047 248.094C217.484 248.094 217.898 248.016 218.289 247.859C218.68 247.688 219.023 247.461 219.32 247.18C219.617 246.883 219.844 246.547 220 246.172C220.172 245.781 220.258 245.367 220.258 244.93V228.945H226.633V244.93C226.633 245.367 226.719 245.781 226.891 246.172C227.062 246.547 227.289 246.883 227.57 247.18C227.867 247.461 228.203 247.688 228.578 247.859C228.969 248.016 229.383 248.094 229.82 248.094C230.258 248.094 230.672 248.016 231.062 247.859C231.453 247.688 231.789 247.461 232.07 247.18C232.367 246.883 232.602 246.547 232.773 246.172C232.945 245.781 233.031 245.367 233.031 244.93V228.945H239.406V244.93ZM254.031 247.859C254.281 247.938 254.531 247.992 254.781 248.023C255.031 248.039 255.281 248.047 255.531 248.047C256.156 248.047 256.758 247.961 257.336 247.789C257.914 247.617 258.453 247.375 258.953 247.062C259.469 246.734 259.922 246.344 260.312 245.891C260.719 245.422 261.047 244.906 261.297 244.344L265.984 249.055C265.391 249.898 264.703 250.656 263.922 251.328C263.156 252 262.32 252.57 261.414 253.039C260.523 253.508 259.578 253.859 258.578 254.094C257.594 254.344 256.578 254.469 255.531 254.469C253.766 254.469 252.102 254.141 250.539 253.484C248.992 252.828 247.633 251.914 246.461 250.742C245.305 249.57 244.391 248.18 243.719 246.57C243.047 244.945 242.711 243.164 242.711 241.227C242.711 239.242 243.047 237.43 243.719 235.789C244.391 234.148 245.305 232.75 246.461 231.594C247.633 230.438 248.992 229.539 250.539 228.898C252.102 228.258 253.766 227.938 255.531 227.938C256.578 227.938 257.602 228.062 258.602 228.312C259.602 228.562 260.547 228.922 261.438 229.391C262.344 229.859 263.188 230.438 263.969 231.125C264.75 231.797 265.438 232.555 266.031 233.398L254.031 247.859ZM257.312 234.664C257.016 234.555 256.719 234.484 256.422 234.453C256.141 234.422 255.844 234.406 255.531 234.406C254.656 234.406 253.828 234.57 253.047 234.898C252.281 235.211 251.609 235.664 251.031 236.258C250.469 236.852 250.023 237.57 249.695 238.414C249.367 239.242 249.203 240.18 249.203 241.227C249.203 241.461 249.211 241.727 249.227 242.023C249.258 242.32 249.297 242.625 249.344 242.938C249.406 243.234 249.477 243.523 249.555 243.805C249.633 244.086 249.734 244.336 249.859 244.555L257.312 234.664ZM275.664 254H269.266V228.898H270.812L272.922 231.875C273.953 230.938 275.125 230.219 276.438 229.719C277.75 229.203 279.109 228.945 280.516 228.945H286.164V235.32H280.516C279.844 235.32 279.211 235.445 278.617 235.695C278.023 235.945 277.508 236.289 277.07 236.727C276.633 237.164 276.289 237.68 276.039 238.273C275.789 238.867 275.664 239.5 275.664 240.172V254ZM302.641 254H288.016V247.625H302.641C303.078 247.625 303.453 247.469 303.766 247.156C304.078 246.844 304.234 246.469 304.234 246.031C304.234 245.578 304.078 245.281 303.766 245.141C303.453 245 303.078 244.93 302.641 244.93H295.984C294.875 244.93 293.836 244.719 292.867 244.297C291.898 243.875 291.055 243.305 290.336 242.586C289.617 241.852 289.047 241 288.625 240.031C288.219 239.062 288.016 238.023 288.016 236.914C288.016 235.805 288.219 234.766 288.625 233.797C289.047 232.828 289.617 231.984 290.336 231.266C291.055 230.547 291.898 229.984 292.867 229.578C293.836 229.156 294.875 228.945 295.984 228.945H308.945V235.32H295.984C295.547 235.32 295.172 235.477 294.859 235.789C294.547 236.102 294.391 236.477 294.391 236.914C294.391 237.367 294.547 237.758 294.859 238.086C295.172 238.398 295.547 238.555 295.984 238.555H302.641C303.734 238.555 304.766 238.742 305.734 239.117C306.703 239.477 307.547 239.984 308.266 240.641C308.984 241.297 309.555 242.086 309.977 243.008C310.398 243.93 310.609 244.938 310.609 246.031C310.609 247.141 310.398 248.18 309.977 249.148C309.555 250.102 308.984 250.945 308.266 251.68C307.547 252.398 306.703 252.969 305.734 253.391C304.766 253.797 303.734 254 302.641 254Z" fill="#9C7A00"/>
</svg>
