<svg width="25" height="25" viewBox="0 0 25 25" fill="none" xmlns="http://www.w3.org/2000/svg">
<path d="M21.5 12C21.5 17.2467 17.2467 21.5 12 21.5C6.75329 21.5 2.5 17.2467 2.5 12C2.5 6.75329 6.75329 2.5 12 2.5C17.2467 2.5 21.5 6.75329 21.5 12Z" stroke="#d74a31"/>
<path fill-rule="evenodd" clip-rule="evenodd" d="M12.0276 19C10.9861 18.2737 9.94366 17.5467 9.94366 17.5467L9.93533 17.5409L9.92236 17.5318L9.88572 17.5058C9.85667 17.4851 9.81844 17.4576 9.77209 17.4238C9.67955 17.3563 9.55368 17.2627 9.40311 17.1467C9.10455 16.9166 8.69568 16.5877 8.25047 16.1886C7.46857 15.4875 6.15478 14.2061 5.39201 12.6104C4.4768 10.6957 5.21872 8.36741 7.04915 7.41006C8.8648 6.46044 11.0694 7.21637 11.9981 9.09733C12.9696 7.2132 15.2516 6.44922 17.0528 7.4654C18.854 8.48158 19.5266 10.8328 18.5552 12.7169C17.7763 14.2275 16.5195 15.4685 15.741 16.1744C15.3058 16.5691 14.908 16.8949 14.6177 17.1235C14.4713 17.2387 14.3493 17.3315 14.2597 17.3984C14.2148 17.432 14.1779 17.4592 14.1499 17.4797L14.1146 17.5053L14.1022 17.5143L14.0942 17.52C14.0942 17.52 13.2352 18.1984 12.0276 19Z" fill="#d74a31"/>
</svg>
