<svg width="21" height="21" viewBox="0 0 21 21" fill="none" xmlns="http://www.w3.org/2000/svg">
<path d="M10.5262 17.15L8.54648 15.7694L8.53857 15.7639L8.52624 15.7552L8.49143 15.7305C8.46383 15.7109 8.42751 15.6847 8.38348 15.6526C8.29558 15.5885 8.176 15.4996 8.03295 15.3894C7.74932 15.1707 7.36089 14.8584 6.93794 14.4791C6.19515 13.8131 4.94704 12.5958 4.22241 11.0798C3.35296 9.26087 4.05779 7.04903 5.79669 6.13955C7.52156 5.23742 9.61597 5.95555 10.4982 7.74246C11.4211 5.95254 13.589 5.22676 15.3001 6.19213C17.0113 7.15751 17.6503 9.39112 16.7274 11.181C15.9875 12.6162 14.7935 13.7951 14.054 14.4657C13.6405 14.8407 13.2626 15.1502 12.9868 15.3673C12.8478 15.4767 12.7318 15.5649 12.6467 15.6285C12.6041 15.6604 12.569 15.6862 12.5424 15.7057L12.5089 15.7301L12.4971 15.7386L12.4895 15.744C12.4895 15.744 11.6734 16.3885 10.5262 17.15ZM10.5262 17.15L8.54739 15.77M10.5262 17.15L12.4887 15.7446M20 10.5C20 15.7467 15.7467 20 10.5 20C5.25329 20 1 15.7467 1 10.5C1 5.25329 5.25329 1 10.5 1C15.7467 1 20 5.25329 20 10.5Z" stroke="black" stroke-opacity="0.2"/>
</svg>
