<svg width="32" height="32" viewBox="0 0 32 32" fill="none" xmlns="http://www.w3.org/2000/svg">
<path d="M16.0008 0C7.16296 0 8.68181e-08 7.16296 8.68181e-08 15.9992C-0.000218812 18.1005 0.413506 20.1813 1.21755 22.1227C2.02158 24.0641 3.20019 25.8281 4.68605 27.314C6.17191 28.7998 7.93591 29.9784 9.87732 30.7825C11.8187 31.5865 13.8995 32.0002 16.0008 32C24.8354 32 32 24.837 32 15.9992C32 7.16296 24.8354 0 16.0008 0V0ZM17.4941 5.77637C19.054 5.77637 19.5123 6.68132 19.5123 7.71626C19.5123 9.00786 18.479 10.2028 16.7141 10.2028C15.2375 10.2028 14.5342 9.46117 14.5776 8.2329C14.5776 7.19796 15.4425 5.77637 17.4941 5.77637V5.77637ZM13.4976 25.582C12.431 25.582 11.6527 24.9337 12.3977 22.0922L13.6193 17.0508C13.8309 16.2442 13.8659 15.9208 13.6193 15.9208C13.301 15.9208 11.916 16.4775 11.0994 17.0274L10.5678 16.1558C13.1593 13.9909 16.1392 12.721 17.4141 12.721C18.4807 12.721 18.6574 13.9809 18.1257 15.9208L16.7258 21.2206C16.4775 22.1572 16.5841 22.4805 16.8325 22.4805C17.1524 22.4805 18.1991 22.0938 19.229 21.2822L19.8323 22.0922C17.3108 24.6121 14.5626 25.582 13.4976 25.582Z" fill="white"/>
</svg>
