<svg width="24" height="24" viewBox="0 0 24 24" fill="none" xmlns="http://www.w3.org/2000/svg">
<g clip-path="url(#clip0)">
<path d="M4.55089e-07 12C-0.000513962 10.6787 0.435095 9.39426 1.23922 8.34591C2.04335 7.29756 3.17103 6.54394 4.44726 6.20202C5.72349 5.8601 7.07689 5.94899 8.29743 6.4549C9.51797 6.9608 10.5374 7.85544 11.1975 8.99996H21C21.0986 8.99978 21.1962 9.01903 21.2873 9.05661C21.3784 9.09419 21.4612 9.14935 21.531 9.21896L23.781 11.469C23.8508 11.5386 23.9063 11.6214 23.9441 11.7125C23.9819 11.8036 24.0013 11.9013 24.0013 12C24.0013 12.0986 23.9819 12.1963 23.9441 12.2874C23.9063 12.3785 23.8508 12.4613 23.781 12.531L21.531 14.781C21.4613 14.8508 21.3786 14.9062 21.2874 14.944C21.1963 14.9818 21.0987 15.0013 21 15.0013C20.9013 15.0013 20.8037 14.9818 20.7126 14.944C20.6214 14.9062 20.5387 14.8508 20.469 14.781L19.5 13.8105L18.531 14.781C18.4613 14.8508 18.3786 14.9062 18.2874 14.944C18.1963 14.9818 18.0987 15.0013 18 15.0013C17.9013 15.0013 17.8037 14.9818 17.7126 14.944C17.6214 14.9062 17.5387 14.8508 17.469 14.781L16.5 13.8105L15.531 14.781C15.4613 14.8508 15.3786 14.9062 15.2874 14.944C15.1963 14.9818 15.0987 15.0013 15 15.0013C14.9013 15.0013 14.8037 14.9818 14.7126 14.944C14.6214 14.9062 14.5387 14.8508 14.469 14.781L13.5 13.8105L12.531 14.781C12.4612 14.8506 12.3784 14.9057 12.2873 14.9433C12.1962 14.9809 12.0986 15.0001 12 15H11.1975C10.5374 16.1445 9.51797 17.0391 8.29743 17.545C7.07689 18.0509 5.72349 18.1398 4.44726 17.7979C3.17103 17.456 2.04335 16.7024 1.23922 15.654C0.435095 14.6057 -0.000513962 13.3212 4.55089e-07 12ZM6 7.49996C5.19471 7.50026 4.40426 7.71666 3.7111 8.12657C3.01795 8.53648 2.44749 9.12489 2.05924 9.8304C1.67099 10.5359 1.47918 11.3327 1.50381 12.1376C1.52845 12.9425 1.76862 13.7261 2.19929 14.4065C2.62995 15.087 3.23532 15.6394 3.95224 16.0062C4.66917 16.3729 5.47137 16.5406 6.27518 16.4916C7.07898 16.4427 7.85492 16.179 8.52205 15.7279C9.18919 15.2769 9.72307 14.6551 10.068 13.9275C10.1289 13.7996 10.2247 13.6916 10.3445 13.6159C10.4642 13.5403 10.6029 13.5001 10.7445 13.5H11.6895L12.969 12.219C13.0387 12.1491 13.1214 12.0937 13.2126 12.0559C13.3037 12.0181 13.4013 11.9986 13.5 11.9986C13.5987 11.9986 13.6963 12.0181 13.7874 12.0559C13.8786 12.0937 13.9613 12.1491 14.031 12.219L15 13.1895L15.969 12.219C16.0387 12.1491 16.1214 12.0937 16.2126 12.0559C16.3037 12.0181 16.4013 11.9986 16.5 11.9986C16.5987 11.9986 16.6963 12.0181 16.7874 12.0559C16.8786 12.0937 16.9613 12.1491 17.031 12.219L18 13.1895L18.969 12.219C19.0387 12.1491 19.1214 12.0937 19.2126 12.0559C19.3037 12.0181 19.4013 11.9986 19.5 11.9986C19.5987 11.9986 19.6963 12.0181 19.7874 12.0559C19.8786 12.0937 19.9613 12.1491 20.031 12.219L21 13.1895L22.1895 12L20.6895 10.5H10.7445C10.6029 10.4998 10.4642 10.4596 10.3445 10.384C10.2247 10.3083 10.1289 10.2003 10.068 10.0725C9.70304 9.30252 9.12698 8.65202 8.40684 8.19662C7.68669 7.74122 6.85206 7.49963 6 7.49996Z" fill="#828282"/>
<path d="M6 12C6 12.3978 5.84196 12.7794 5.56066 13.0607C5.27936 13.342 4.89782 13.5 4.5 13.5C4.10218 13.5 3.72064 13.342 3.43934 13.0607C3.15804 12.7794 3 12.3978 3 12C3 11.6022 3.15804 11.2206 3.43934 10.9393C3.72064 10.658 4.10218 10.5 4.5 10.5C4.89782 10.5 5.27936 10.658 5.56066 10.9393C5.84196 11.2206 6 11.6022 6 12Z" fill="#828282"/>
</g>
<defs>
<clipPath id="clip0">
<rect width="24" height="24" fill="white"/>
</clipPath>
</defs>
</svg>
