<svg width="32" height="32" viewBox="0 0 32 32" fill="none" xmlns="http://www.w3.org/2000/svg">
<rect width="32" height="32" rx="4" fill="#B44F17"/>
<path d="M16.5 4C13.2261 4 10.5625 6.57945 10.5625 9.75V13.2H9.375C8.74511 13.2 8.14102 13.4423 7.69562 13.8737C7.25022 14.305 7 14.89 7 15.5V24.7C7 25.31 7.25022 25.895 7.69562 26.3263C8.14102 26.7577 8.74511 27 9.375 27H23.625C24.2549 27 24.859 26.7577 25.3044 26.3263C25.7498 25.895 26 25.31 26 24.7V15.5C26 14.89 25.7498 14.305 25.3044 13.8737C24.859 13.4423 24.2549 13.2 23.625 13.2H22.4375V9.75C22.4375 6.57945 19.7739 4 16.5 4ZM12.9375 9.75C12.9375 7.8479 14.5359 6.3 16.5 6.3C18.4641 6.3 20.0625 7.8479 20.0625 9.75V13.2H12.9375V9.75ZM17.6875 22.0814V24.7H15.3125V22.0814C14.8973 21.8512 14.564 21.5045 14.3564 21.0871C14.1488 20.6697 14.0767 20.2011 14.1496 19.7432C14.2225 19.2853 14.437 18.8596 14.7648 18.5221C15.0926 18.1847 15.5183 17.9513 15.9858 17.8529C16.3331 17.7785 16.6931 17.7806 17.0394 17.859C17.3857 17.9373 17.7095 18.09 17.9867 18.3056C18.264 18.5213 18.4878 18.7945 18.6415 19.105C18.7952 19.4156 18.875 19.7556 18.875 20.1C18.8743 20.5022 18.7642 20.8971 18.5557 21.245C18.3472 21.5929 18.0478 21.8814 17.6875 22.0814Z" fill="white"/>
</svg>
