<svg width="23" height="19" viewBox="0 0 23 19" fill="none" xmlns="http://www.w3.org/2000/svg">
<path fill-rule="evenodd" clip-rule="evenodd" d="M2.53569 3.52654C2.87894 3.18488 3.34577 2.99183 3.83377 2.99161L10.4449 2.9887C10.9329 2.98849 11.3999 3.18113 11.7434 3.52249C12.0868 3.86366 12.2788 4.32533 12.279 4.80564L12.2794 5.74488C12.2797 6.29717 12.7276 6.74469 13.2799 6.74444C13.8322 6.7442 14.2797 6.29629 14.2794 5.744L14.279 4.80476C14.2786 3.79045 13.8729 2.81897 13.1531 2.10376C12.4335 1.38872 11.4589 0.988259 10.444 0.988705L3.83289 0.991613C2.81801 0.99206 1.84376 1.39338 1.12476 2.10905C0.405584 2.8249 0.000793792 3.79672 0.00123995 4.81104L0.00537133 14.2035C0.00581748 15.2178 0.411462 16.1893 1.13127 16.9045C1.85089 17.6195 2.8255 18.02 3.84038 18.0196L10.4515 18.0166C11.4664 18.0162 12.4406 17.6149 13.1596 16.8992C13.8788 16.1834 14.2836 15.2115 14.2831 14.1972L14.2827 13.258C14.2825 12.7057 13.8346 12.2582 13.2823 12.2584C12.73 12.2587 12.2825 12.7066 12.2827 13.2589L12.2831 14.1981C12.2834 14.6784 12.0918 15.1403 11.7487 15.4817C11.4054 15.8234 10.9386 16.0164 10.4506 16.0166L3.8395 16.0196C3.3515 16.0198 2.8845 15.8271 2.54095 15.4858C2.19759 15.1446 2.00558 14.6829 2.00537 14.2026L2.00124 4.81016C2.00103 4.32985 2.19263 3.86801 2.53569 3.52654ZM17.0225 12.8322C16.6528 13.2425 16.6857 13.8748 17.096 14.2445C17.5062 14.6142 18.1385 14.5813 18.5083 14.171L22.1141 10.1694C22.4571 9.78872 22.4568 9.21032 22.1135 8.82993C21.422 8.06398 20.4768 6.95169 19.698 6.02279C19.31 5.56004 18.9658 5.14577 18.7186 4.84721C18.595 4.69796 18.4957 4.5777 18.4274 4.49484L18.3491 4.39968L18.3289 4.37512L18.3238 4.36895L18.3225 4.36743L18.3222 4.36707L18.3222 4.36698L17.5494 5.00168L18.3222 4.36697C17.9716 3.94019 17.3415 3.87839 16.9147 4.22893C16.4879 4.57947 16.4261 5.20961 16.7767 5.63639L17.5494 5.00168L16.7767 5.63644L16.7768 5.63656L16.7772 5.63701L16.7786 5.63868L16.7839 5.64518L16.8046 5.67041L16.8842 5.767C16.9533 5.85086 17.0535 5.97223 17.1781 6.12271C17.4272 6.42361 17.7742 6.84114 18.1654 7.30778C18.4807 7.68375 18.8263 8.09356 19.1737 8.50097L8.00154 8.50588C7.44925 8.50612 7.00173 8.95404 7.00198 9.50632C7.00222 10.0586 7.45013 10.5061 8.00242 10.5059L19.1231 10.501L17.0225 12.8322Z" fill="white"/>
</svg>
