<svg width="337" height="124" viewBox="0 0 337 124" fill="none" xmlns="http://www.w3.org/2000/svg">
<path d="M16.5713 41.0685C15.5217 40.8112 14.6 40.5854 13.8123 40.4173C14.9536 39.1467 16.0446 37.8857 17.1212 36.6412L17.1262 36.6353C24.8377 27.721 31.8231 19.6464 51.3845 14.8373C57.2736 13.5747 62.5555 12.9504 67.4996 12.3661C79.6082 10.935 89.6924 9.74315 101.715 0C90.935 16.4098 74.099 36.4808 56.5632 41.6436C38.1886 46.3666 24.0952 42.9125 16.5713 41.0685Z" fill="white"/>
<path d="M122.677 32.4415V67.932L103.112 32.4415C101.438 32.5052 99.8609 32.6221 98.3813 32.792C96.9018 32.9406 95.6072 33.0999 94.4975 33.2698C93.1932 33.4822 91.9959 33.6946 90.9057 33.907V41.3619C91.665 41.1283 92.4924 40.8947 93.3879 40.661C94.2834 40.4274 95.247 40.215 96.2788 40.0239V72.2011C94.1374 71.8188 92.3464 71.3727 90.9057 70.863V78.9551C92.2879 79.21 93.5533 79.4223 94.7019 79.5923C95.8505 79.7622 96.9115 79.9002 97.8849 80.0064C98.8583 80.1126 99.7733 80.1976 100.63 80.2613C101.486 80.325 102.314 80.3781 103.112 80.4206V44.9938L122.677 80.4206C123.475 80.3781 124.303 80.325 125.159 80.2613C126.016 80.1976 126.931 80.1126 127.904 80.0064C128.897 79.9002 129.968 79.7622 131.116 79.5923C132.265 79.4223 133.54 79.21 134.942 78.9551V71.4365C134.182 71.6913 133.355 71.9356 132.46 72.1692C131.583 72.4028 130.62 72.6046 129.569 72.7745V40.661C131.593 41.0433 133.384 41.4894 134.942 41.9991V33.907C133.813 33.6946 132.596 33.4822 131.291 33.2698C130.162 33.0999 128.858 32.9406 127.378 32.792C125.918 32.6221 124.351 32.5052 122.677 32.4415Z" fill="white"/>
<path d="M172.553 31.9636C169.925 31.3902 167.141 31.1035 164.202 31.1035C162.235 31.1035 160.337 31.2309 158.507 31.4858C156.677 31.7406 154.954 32.1123 153.339 32.6008C151.742 33.0681 150.282 33.6415 148.958 34.3212C147.654 35.0008 146.525 35.7654 145.571 36.615C144.637 37.4646 143.907 38.3991 143.381 39.4186C142.855 40.438 142.592 41.5106 142.592 42.6363V70.0347C142.592 71.1603 142.855 72.2329 143.381 73.2524C143.907 74.2506 144.637 75.1745 145.571 76.0241C146.525 76.8737 147.654 77.6383 148.958 78.3179C150.282 78.9763 151.742 79.5498 153.339 80.0383C154.954 80.5055 156.677 80.8666 158.507 81.1215C160.337 81.3763 162.235 81.5038 164.202 81.5038C166.168 81.5038 168.066 81.3763 169.896 81.1215C171.726 80.8666 173.439 80.5055 175.035 80.0383C176.651 79.5498 178.111 78.9763 179.416 78.3179C180.739 77.6383 181.869 76.8737 182.803 76.0241C183.757 75.1745 184.497 74.2506 185.022 73.2524C185.548 72.2329 185.811 71.1603 185.811 70.0347V64.4276H178.102V67.6134C178.102 68.5055 177.78 69.3656 177.138 70.194C176.495 71.0011 175.571 71.7126 174.364 72.3285C173.176 72.9444 171.726 73.4435 170.013 73.8258C168.3 74.1869 166.363 74.3674 164.202 74.3674C162.119 74.3674 160.22 74.1975 158.507 73.8577C156.794 73.4966 155.324 73.0188 154.098 72.4241C152.871 71.8081 151.917 71.086 151.236 70.2577C150.574 69.4294 150.243 68.5479 150.243 67.6134V45.1212C150.243 44.1442 150.574 43.2416 151.236 42.4133C151.917 41.5637 152.871 40.831 154.098 40.215C155.324 39.5991 156.794 39.1212 158.507 38.7814C160.22 38.4203 162.119 38.2398 164.202 38.2398C166.363 38.2398 168.3 38.4309 170.013 38.8132C171.726 39.1743 173.176 39.6734 174.364 40.3106C175.571 40.9265 176.495 41.6593 177.138 42.5088C177.78 43.3372 178.102 44.208 178.102 45.1212V48.2434H185.811V42.6363C185.811 40.9371 185.236 39.3867 184.088 37.9849C182.939 36.5619 181.382 35.3407 179.416 34.3212C177.469 33.3017 175.181 32.5159 172.553 31.9636Z" fill="white"/>
<path d="M219.305 51.0788C219.441 48.6788 219.509 46.3743 219.509 44.1655C217.816 44.208 216.326 44.2611 215.041 44.3248C213.776 44.3673 212.627 44.4522 211.596 44.5796C210.583 44.7071 209.649 44.877 208.792 45.0894C207.955 45.2805 207.138 45.5566 206.339 45.9177C205.561 46.2788 204.753 46.7248 203.916 47.2558C203.079 47.7655 202.164 48.3921 201.171 49.1354C200.645 48.2221 200.042 47.4575 199.36 46.8416C198.698 46.2044 198.066 45.6841 197.462 45.2805C196.761 44.8133 196.051 44.4416 195.33 44.1655L192.235 50.4098C192.683 50.6434 193.082 50.9407 193.432 51.3018C193.744 51.5992 194.036 51.9815 194.308 52.4487C194.6 52.916 194.785 53.4894 194.863 54.1691V80.4843H202.339V54.3602C202.709 54.1054 203.127 53.7655 203.594 53.3408C204.062 52.916 204.665 52.5018 205.405 52.0983C206.145 51.6735 207.069 51.3124 208.179 51.0151C209.308 50.6965 210.729 50.516 212.443 50.4735C212.443 51.5567 212.384 52.5868 212.267 53.5638C212.17 54.5195 212.063 55.3585 211.946 56.0806C211.79 56.9302 211.625 57.716 211.45 58.4381H218.516C218.906 55.9107 219.169 53.4576 219.305 51.0788Z" fill="white"/>
<path fill-rule="evenodd" clip-rule="evenodd" d="M250.375 44.3248C248.993 44.2186 247.815 44.1655 246.842 44.1655C245.557 44.1655 244.175 44.2186 242.695 44.3248C241.216 44.431 239.726 44.6221 238.227 44.8982C236.748 45.1531 235.317 45.5248 233.935 46.0133C232.553 46.4805 231.326 47.0859 230.255 47.8292C229.204 48.5726 228.357 49.4753 227.715 50.5372C227.072 51.5779 226.751 52.8098 226.751 54.2328L233.993 56.2718C233.993 55.401 234.198 54.6576 234.606 54.0417C235.035 53.4045 235.599 52.8629 236.3 52.4169C237.001 51.9708 237.799 51.6204 238.695 51.3655C239.61 51.0894 240.554 50.877 241.527 50.7284C242.52 50.5797 243.513 50.4841 244.506 50.4416C245.499 50.3779 246.433 50.3461 247.309 50.3461C248.146 50.3461 249.042 50.3673 249.996 50.4098C250.969 50.4522 251.923 50.5478 252.857 50.6965C253.792 50.8452 254.687 51.0576 255.544 51.3337C256.401 51.5885 257.16 51.939 257.822 52.385C258.484 52.8098 259.009 53.3408 259.399 53.9779C259.788 54.5939 259.983 55.3372 259.983 56.208V61.3691C259.146 60.7957 258.085 60.2753 256.8 59.8081C255.69 59.4258 254.288 59.0753 252.595 58.7567C250.92 58.4169 248.886 58.247 246.492 58.247C244.915 58.247 243.338 58.3001 241.761 58.4063C240.184 58.4912 238.666 58.6612 237.205 58.916C235.745 59.1709 234.383 59.5107 233.117 59.9355C231.852 60.3603 230.752 60.9019 229.817 61.5603C228.883 62.2187 228.143 63.0152 227.598 63.9497C227.072 64.863 226.81 65.9355 226.81 67.1674V78.6365C230.489 79.3161 234.013 79.794 237.381 80.0701C240.768 80.3462 243.961 80.4843 246.959 80.4843C249.976 80.4843 252.711 80.3887 255.164 80.1976C257.617 80.0064 259.73 79.794 261.501 79.5604C263.565 79.3055 265.414 78.9976 267.049 78.6365V53.9779C267.049 52.5974 266.689 51.3974 265.969 50.3779C265.249 49.3584 264.295 48.4876 263.107 47.7655C261.939 47.0221 260.615 46.4274 259.136 45.9814C257.676 45.5142 256.196 45.1531 254.697 44.8982C253.198 44.6221 251.758 44.431 250.375 44.3248ZM258.172 66.1161C258.892 66.5621 259.496 67.0187 259.983 67.486V73.2205C257.549 73.709 255.184 74.0382 252.887 74.2081C250.609 74.3568 248.458 74.4312 246.433 74.4312C243.902 74.4312 241.605 74.3356 239.542 74.1444C237.478 73.9533 235.59 73.709 233.876 73.4117V69.3338C233.876 67.9745 234.217 66.9125 234.899 66.1479C235.58 65.3833 236.505 64.8311 237.673 64.4913C238.841 64.1302 240.194 63.9178 241.732 63.8541C243.289 63.7691 244.934 63.7267 246.667 63.7267C248.613 63.7267 250.307 63.8435 251.748 64.0771C253.208 64.2895 254.464 64.5762 255.515 64.9373C256.566 65.2771 257.452 65.67 258.172 66.1161Z" fill="white"/>
<path d="M290.381 37.8575C291.043 37.6876 291.773 37.6026 292.572 37.6026V32.0592C290.488 32.0592 288.639 32.3247 287.023 32.8557C285.407 33.3867 284.035 34.13 282.906 35.0858C281.796 36.0203 280.949 37.1354 280.365 38.4309C279.781 39.7265 279.489 41.1283 279.489 42.6363V43.7195H274.759V49.0717H279.489V80.4843H287.082V49.0717H294.616V43.7195H287.082V41.7442C287.082 41.0646 287.218 40.4699 287.49 39.9601C287.763 39.4292 288.143 38.9938 288.629 38.6539C289.135 38.2929 289.72 38.0274 290.381 37.8575Z" fill="white"/>
<path d="M319.437 43.7195H312.02V32.6327H305.07V43.7195H299.58V49.0717H305.07V80.4843H312.02V49.0717H319.437V43.7195Z" fill="white"/>
<path d="M0 78.7598C0.770343 78.9291 1.67088 79.1557 2.69627 79.4136C10.0468 81.2627 23.8154 84.7263 42.0583 80.2842C59.4893 75.4087 76.7035 56.0533 87.8381 40.2054C75.6908 49.571 65.7232 50.6494 53.7545 51.9443C48.8674 52.473 43.6466 53.0379 37.8075 54.2178C18.393 58.7341 11.2589 66.5191 3.38297 75.1137L3.37886 75.1183C2.27894 76.3186 1.16441 77.5347 0 78.7598Z" fill="white"/>
<path d="M24.3377 98.5969L24.3349 98.5954C23.2987 97.9744 22.3886 97.429 21.6002 96.9867C23.3821 96.186 25.1046 95.3765 26.8049 94.5775C38.9643 88.8633 49.9784 83.6872 73.3468 86.1341C80.3044 87.047 86.331 88.3493 91.9724 89.5684C105.788 92.554 117.294 95.0404 134.507 90.0852C115.851 101.831 89.0489 114.886 67.7428 113.503C45.706 111.4 31.7751 103.053 24.3377 98.5969Z" fill="white"/>
<path d="M102.654 114.944C103.715 115.257 104.941 115.652 106.336 116.103C116.339 119.332 135.075 125.381 164.614 123.715C193.168 121.446 228.954 103.619 253.839 88.5203C230.827 96.4987 215.391 95.9633 196.857 95.3205C189.288 95.058 181.204 94.7776 171.875 95.0516C140.549 96.5986 125.842 103.733 109.605 111.61C107.334 112.711 105.034 113.827 102.654 114.944Z" fill="white"/>
<path d="M226.365 112.777C225.286 112.529 224.339 112.311 223.521 112.145C225.276 111.165 226.971 110.19 228.644 109.229C240.606 102.352 251.443 96.1237 275.131 93.0146C282.193 92.2277 288.337 91.9311 294.088 91.6534C308.173 90.9734 319.903 90.4071 337 83.0313C318.801 95.8231 292.455 111.327 270.901 114.799C248.574 117.886 234.095 114.555 226.365 112.777Z" fill="white"/>
</svg>
