<svg width="320" height="141" viewBox="0 0 320 141" fill="none" xmlns="http://www.w3.org/2000/svg">
<path d="M111.639 73.5678V47.4584C112.982 47.5053 114.24 47.5912 115.412 47.7162C116.6 47.8256 117.646 47.9428 118.553 48.0678C119.6 48.2241 120.576 48.3803 121.482 48.5366V54.4897C120.232 54.1147 118.795 53.7866 117.17 53.5053V77.1303C118.014 77.0053 118.787 76.8569 119.49 76.685C120.209 76.5131 120.873 76.3334 121.482 76.1459V81.6772C120.357 81.8647 119.334 82.0209 118.412 82.1459C117.49 82.2709 116.631 82.3725 115.834 82.4506C115.053 82.5287 114.318 82.5912 113.631 82.6381C112.943 82.685 112.279 82.7241 111.639 82.7553L95.9355 56.6928V82.7553C95.2949 82.7241 94.6309 82.685 93.9434 82.6381C93.2559 82.5912 92.5215 82.5287 91.7402 82.4506C90.959 82.3725 90.1074 82.2709 89.1855 82.1459C88.2637 82.0209 87.248 81.8647 86.1387 81.6772V75.7241C87.2949 76.0991 88.7324 76.4272 90.4512 76.7084V53.0366C89.623 53.1772 88.8496 53.3334 88.1309 53.5053C87.4121 53.6772 86.748 53.8491 86.1387 54.0209V48.5366C87.0137 48.3803 87.9746 48.2241 89.0215 48.0678C89.9121 47.9428 90.9512 47.8256 92.1387 47.7162C93.3262 47.5912 94.5918 47.5053 95.9355 47.4584L111.639 73.5678ZM144.967 46.4741C147.326 46.4741 149.561 46.685 151.67 47.1069C153.779 47.5131 155.615 48.0912 157.178 48.8412C158.756 49.5912 160.006 50.4897 160.928 51.5366C161.85 52.5678 162.311 53.7084 162.311 54.9584V59.0834H156.123V56.7866C156.123 56.1147 155.865 55.4741 155.35 54.8647C154.834 54.2397 154.092 53.7006 153.123 53.2475C152.17 52.7787 151.006 52.4116 149.631 52.1459C148.256 51.8647 146.701 51.7241 144.967 51.7241C143.295 51.7241 141.771 51.8569 140.396 52.1225C139.021 52.3725 137.842 52.7241 136.857 53.1772C135.873 53.6303 135.107 54.1694 134.561 54.7944C134.029 55.4037 133.764 56.0678 133.764 56.7866V73.3334C133.764 74.0209 134.029 74.6694 134.561 75.2787C135.107 75.8881 135.873 76.4194 136.857 76.8725C137.842 77.31 139.021 77.6616 140.396 77.9272C141.771 78.1772 143.295 78.3022 144.967 78.3022C146.701 78.3022 148.256 78.1694 149.631 77.9037C151.006 77.6225 152.17 77.2553 153.123 76.8022C154.092 76.3491 154.834 75.8256 155.35 75.2319C155.865 74.6225 156.123 73.9897 156.123 73.3334V70.9897H162.311V75.1147C162.311 75.9428 162.1 76.7319 161.678 77.4819C161.256 78.2162 160.662 78.8959 159.896 79.5209C159.146 80.1459 158.24 80.7084 157.178 81.2084C156.131 81.6928 154.959 82.1147 153.662 82.4741C152.381 82.8178 151.006 83.0834 149.537 83.2709C148.068 83.4584 146.545 83.5522 144.967 83.5522C143.389 83.5522 141.865 83.4584 140.396 83.2709C138.928 83.0834 137.545 82.8178 136.248 82.4741C134.967 82.1147 133.795 81.6928 132.732 81.2084C131.686 80.7084 130.779 80.1459 130.014 79.5209C129.264 78.8959 128.678 78.2162 128.256 77.4819C127.834 76.7319 127.623 75.9428 127.623 75.1147V54.9584C127.623 54.1303 127.834 53.3412 128.256 52.5912C128.678 51.8412 129.264 51.1537 130.014 50.5287C130.779 49.9037 131.686 49.3412 132.732 48.8412C133.795 48.3412 134.967 47.9194 136.248 47.5756C137.545 47.2162 138.928 46.9428 140.396 46.7553C141.865 46.5678 143.389 46.4741 144.967 46.4741ZM189.357 56.0834C189.357 57.7084 189.303 59.4037 189.193 61.1694C189.084 62.9194 188.873 64.7241 188.561 66.5834H182.889C183.029 66.0522 183.162 65.4741 183.287 64.8491C183.381 64.3178 183.467 63.7006 183.545 62.9975C183.639 62.2787 183.686 61.5209 183.686 60.7241C182.311 60.7553 181.17 60.8881 180.264 61.1225C179.373 61.3412 178.631 61.6069 178.037 61.9194C177.443 62.2162 176.959 62.5209 176.584 62.8334C176.209 63.1459 175.873 63.3959 175.576 63.5834V82.8022H169.576V63.4428C169.514 62.9428 169.365 62.5209 169.131 62.1772C168.912 61.8334 168.678 61.5522 168.428 61.3334C168.146 61.0678 167.826 60.8491 167.467 60.6772L169.951 56.0834C170.529 56.2866 171.1 56.56 171.662 56.9037C172.146 57.2006 172.654 57.5834 173.186 58.0522C173.732 58.5053 174.217 59.0678 174.639 59.7397C175.436 59.1928 176.17 58.7319 176.842 58.3569C177.514 57.9662 178.162 57.6381 178.787 57.3725C179.428 57.1069 180.084 56.9037 180.756 56.7631C181.443 56.6069 182.193 56.4819 183.006 56.3881C183.834 56.2944 184.756 56.2319 185.771 56.2006C186.803 56.1537 187.998 56.1147 189.357 56.0834ZM221.842 73.2397C221.451 72.8959 220.967 72.56 220.389 72.2319C219.811 71.9037 219.1 71.6147 218.256 71.3647C217.412 71.0991 216.404 70.8881 215.232 70.7319C214.076 70.56 212.717 70.4741 211.154 70.4741C209.764 70.4741 208.443 70.5053 207.193 70.5678C205.959 70.6147 204.873 70.7709 203.936 71.0366C202.998 71.2866 202.256 71.6928 201.709 72.2553C201.162 72.8178 200.889 73.5991 200.889 74.5991V77.5991C202.264 77.8178 203.779 77.9975 205.436 78.1381C207.092 78.2787 208.936 78.3491 210.967 78.3491C212.592 78.3491 214.318 78.2944 216.146 78.185C217.99 78.06 219.889 77.8178 221.842 77.4584V73.2397ZM211.295 56.0834C212.076 56.0834 213.021 56.1225 214.131 56.2006C215.24 56.2787 216.396 56.4194 217.6 56.6225C218.803 56.81 219.99 57.0756 221.162 57.4194C222.35 57.7475 223.412 58.185 224.35 58.7319C225.303 59.2631 226.068 59.9037 226.646 60.6537C227.225 61.4037 227.514 62.2866 227.514 63.3022V81.4428C226.201 81.7084 224.717 81.935 223.061 82.1225C221.639 82.2944 219.943 82.4506 217.975 82.5912C216.006 82.7319 213.811 82.8022 211.389 82.8022C208.982 82.8022 206.42 82.7006 203.701 82.4975C200.998 82.2944 198.17 81.9428 195.217 81.4428V73.0053C195.217 72.0991 195.428 71.31 195.85 70.6381C196.287 69.9506 196.881 69.3647 197.631 68.8803C198.381 68.3959 199.264 67.9975 200.279 67.685C201.295 67.3725 202.389 67.1225 203.561 66.935C204.732 66.7475 205.951 66.6225 207.217 66.56C208.482 66.4819 209.748 66.4428 211.014 66.4428C212.936 66.4428 214.568 66.5678 215.912 66.8178C217.271 67.0522 218.396 67.31 219.287 67.5912C220.318 67.935 221.17 68.3178 221.842 68.7397V64.9428C221.842 64.3022 221.686 63.7553 221.373 63.3022C221.061 62.8334 220.639 62.4428 220.107 62.1303C219.576 61.8022 218.967 61.5444 218.279 61.3569C217.592 61.1537 216.873 60.9975 216.123 60.8881C215.373 60.7787 214.607 60.7084 213.826 60.6772C213.061 60.6459 212.342 60.6303 211.67 60.6303C210.967 60.6303 210.217 60.6537 209.42 60.7006C208.623 60.7319 207.826 60.8022 207.029 60.9116C206.248 61.0209 205.49 61.1772 204.756 61.3803C204.037 61.5678 203.396 61.8256 202.834 62.1537C202.271 62.4819 201.818 62.8803 201.475 63.3491C201.146 63.8022 200.982 64.3491 200.982 64.9897L195.17 63.4897C195.17 62.4428 195.428 61.5366 195.943 60.7709C196.459 59.9897 197.139 59.3256 197.982 58.7787C198.842 58.2319 199.826 57.7866 200.936 57.4428C202.045 57.0834 203.193 56.81 204.381 56.6225C205.584 56.4194 206.779 56.2787 207.967 56.2006C209.154 56.1225 210.264 56.0834 211.295 56.0834ZM247.998 51.2553C247.357 51.2553 246.771 51.3178 246.24 51.4428C245.709 51.5678 245.24 51.7631 244.834 52.0287C244.443 52.2787 244.139 52.5991 243.92 52.9897C243.701 53.3647 243.592 53.8022 243.592 54.3022V55.7553H249.639V59.6928H243.592V82.8022H237.498V59.6928H233.701V55.7553H237.498V54.9584C237.498 53.8491 237.732 52.8178 238.201 51.8647C238.67 50.9116 239.35 50.0912 240.24 49.4037C241.146 48.7006 242.248 48.1537 243.545 47.7631C244.842 47.3725 246.326 47.1772 247.998 47.1772V51.2553ZM263.607 55.7553H269.561V59.6928H263.607V82.8022H258.029V59.6928H253.623V55.7553H258.029V47.5991H263.607V55.7553Z" fill="#E77B18"/>
<path d="M111.639 73.5678L110.782 74.0832L112.639 77.1707V73.5678H111.639ZM111.639 47.4584L111.674 46.459L110.639 46.4229V47.4584H111.639ZM115.412 47.7162L115.306 48.7106L115.313 48.7114L115.32 48.712L115.412 47.7162ZM118.553 48.0678L118.7 47.0787L118.689 47.0772L118.553 48.0678ZM121.482 48.5366H122.482V47.6942L121.652 47.5511L121.482 48.5366ZM121.482 54.4897L121.195 55.4475L122.482 55.8337V54.4897H121.482ZM117.17 53.5053L117.34 52.52L116.17 52.3174V53.5053H117.17ZM117.17 77.1303H116.17V78.2894L117.316 78.1195L117.17 77.1303ZM119.49 76.685L119.258 75.7124L119.253 75.7136L119.49 76.685ZM121.482 76.1459H122.482V74.792L121.188 75.1902L121.482 76.1459ZM121.482 81.6772L121.647 82.6636L122.482 82.5243V81.6772H121.482ZM115.834 82.4506L115.736 81.4554L115.734 81.4556L115.834 82.4506ZM111.639 82.7553L110.782 83.2714L111.091 83.7832L111.687 83.7541L111.639 82.7553ZM95.9355 56.6928L96.7921 56.1767L94.9355 53.0954V56.6928H95.9355ZM95.9355 82.7553L95.8868 83.7541L96.9355 83.8053V82.7553H95.9355ZM86.1387 81.6772H85.1387V82.5224L85.972 82.6632L86.1387 81.6772ZM86.1387 75.7241L86.4472 74.7728L85.1387 74.3485V75.7241H86.1387ZM90.4512 76.7084L90.2897 77.6953L91.4512 77.8854V76.7084H90.4512ZM90.4512 53.0366H91.4512V51.8524L90.2838 52.0507L90.4512 53.0366ZM86.1387 54.0209H85.1387V55.342L86.4101 54.9834L86.1387 54.0209ZM86.1387 48.5366L85.9629 47.5521L85.1387 47.6993V48.5366H86.1387ZM89.0215 48.0678L88.8825 47.0775L88.8739 47.0788L89.0215 48.0678ZM92.1387 47.7162L92.2304 48.7121L92.2434 48.7108L92.1387 47.7162ZM95.9355 47.4584L96.7925 46.943L96.4891 46.4385L95.9007 46.459L95.9355 47.4584ZM112.639 73.5678V47.4584H110.639V73.5678H112.639ZM111.604 48.4578C112.927 48.504 114.161 48.5885 115.306 48.7106L115.518 46.7219C114.32 46.594 113.038 46.5066 111.674 46.459L111.604 48.4578ZM115.32 48.712C116.497 48.8204 117.528 48.936 118.416 49.0584L118.689 47.0772C117.765 46.9496 116.702 46.8308 115.504 46.7205L115.32 48.712ZM118.405 49.0569C119.446 49.2122 120.415 49.3672 121.313 49.522L121.652 47.5511C120.738 47.3934 119.754 47.236 118.7 47.0788L118.405 49.0569ZM120.482 48.5366V54.4897H122.482V48.5366H120.482ZM121.77 53.5319C120.473 53.1428 118.995 52.8063 117.34 52.52L116.999 54.4907C118.595 54.7668 119.992 55.0865 121.195 55.4475L121.77 53.5319ZM116.17 53.5053V77.1303H118.17V53.5053H116.17ZM117.316 78.1195C118.186 77.9908 118.99 77.8368 119.728 77.6564L119.253 75.7136C118.584 75.877 117.842 76.0199 117.023 76.1411L117.316 78.1195ZM119.723 77.6576C120.459 77.4815 121.144 77.2964 121.777 77.1017L121.188 75.1902C120.602 75.3705 119.959 75.5447 119.258 75.7124L119.723 77.6576ZM120.482 76.1459V81.6772H122.482V76.1459H120.482ZM121.318 80.6908C120.201 80.877 119.188 81.0316 118.278 81.155L118.546 83.1369C119.48 83.0102 120.514 82.8524 121.647 82.6636L121.318 80.6908ZM118.278 81.155C117.366 81.2786 116.519 81.3786 115.736 81.4554L115.932 83.4459C116.742 83.3663 117.614 83.2633 118.546 83.1369L118.278 81.155ZM115.734 81.4556C114.962 81.5328 114.239 81.5944 113.563 81.6404L113.699 83.6358C114.398 83.5881 115.143 83.5247 115.933 83.4457L115.734 81.4556ZM113.563 81.6404C112.881 81.6869 112.224 81.7256 111.59 81.7565L111.687 83.7541C112.335 83.7225 113.005 83.6831 113.699 83.6358L113.563 81.6404ZM112.495 82.2392L96.7921 56.1767L95.079 57.2089L110.782 83.2714L112.495 82.2392ZM94.9355 56.6928V82.7553H96.9355V56.6928H94.9355ZM95.9843 81.7565C95.3505 81.7256 94.6929 81.6869 94.0114 81.6404L93.8753 83.6358C94.5688 83.6831 95.2393 83.7225 95.8868 83.7541L95.9843 81.7565ZM94.0114 81.6404C93.3357 81.5944 92.6119 81.5328 91.8397 81.4556L91.6407 83.4457C92.431 83.5247 93.176 83.5881 93.8753 83.6358L94.0114 81.6404ZM91.8397 81.4556C91.072 81.3788 90.2322 81.2787 89.3199 81.155L89.0512 83.1369C89.9826 83.2632 90.8459 83.3662 91.6407 83.4457L91.8397 81.4556ZM89.3199 81.155C88.4108 81.0317 87.4061 80.8772 86.3053 80.6912L85.972 82.6632C87.09 82.8522 88.1166 83.0101 89.0512 83.1369L89.3199 81.155ZM87.1387 81.6772V75.7241H85.1387V81.6772H87.1387ZM85.8302 76.6753C87.0501 77.0709 88.5405 77.4091 90.2897 77.6953L90.6127 75.7216C88.9244 75.4453 87.5398 75.1272 86.4472 74.7728L85.8302 76.6753ZM91.4512 76.7084V53.0366H89.4512V76.7084H91.4512ZM90.2838 52.0507C89.4367 52.1945 88.6413 52.3551 87.8983 52.5327L88.3634 54.4779C89.0579 54.3118 89.8094 54.1598 90.6186 54.0224L90.2838 52.0507ZM87.8983 52.5327C87.1686 52.7072 86.4914 52.8824 85.8672 53.0585L86.4101 54.9834C87.0047 54.8157 87.6556 54.6471 88.3634 54.4779L87.8983 52.5327ZM87.1387 54.0209V48.5366H85.1387V54.0209H87.1387ZM86.3145 49.521C87.1785 49.3667 88.1299 49.212 89.1691 49.0569L88.8739 47.0788C87.8193 47.2362 86.8488 47.3939 85.9629 47.5521L86.3145 49.521ZM89.1605 49.0581C90.0313 48.9359 91.0539 48.8204 92.2304 48.712L92.047 46.7205C90.8484 46.8309 89.7929 46.9497 88.8825 47.0775L89.1605 49.0581ZM92.2434 48.7108C93.405 48.5885 94.6471 48.504 95.9704 48.4578L95.9007 46.459C94.5365 46.5066 93.2474 46.594 92.034 46.7217L92.2434 48.7108ZM95.0786 47.9738L110.782 74.0832L112.496 73.0524L96.7925 46.943L95.0786 47.9738ZM151.67 47.1069L151.474 48.0875L151.481 48.0888L151.67 47.1069ZM157.178 48.8412L156.745 49.7428L156.748 49.7444L157.178 48.8412ZM160.928 51.5366L160.177 52.1975L160.182 52.203L160.928 51.5366ZM162.311 59.0834V60.0834H163.311V59.0834H162.311ZM156.123 59.0834H155.123V60.0834H156.123V59.0834ZM155.35 54.8647L154.578 55.5011L154.586 55.5106L155.35 54.8647ZM153.123 53.2475L152.682 54.1448L152.691 54.1492L152.699 54.1533L153.123 53.2475ZM149.631 52.1459L149.43 53.1257L149.441 53.1278L149.631 52.1459ZM140.396 52.1225L140.575 53.1064L140.586 53.1043L140.396 52.1225ZM134.561 54.7944L133.808 54.1359L133.807 54.1372L134.561 54.7944ZM134.561 75.2787L133.807 75.9359L133.812 75.9413L133.816 75.9467L134.561 75.2787ZM136.857 76.8725L136.439 77.781L136.451 77.7863L136.857 76.8725ZM140.396 77.9272L140.207 78.9091L140.218 78.9111L140.396 77.9272ZM149.631 77.9037L149.821 78.8857L149.831 78.8835L149.631 77.9037ZM153.123 76.8022L152.699 75.8964L152.694 75.8991L153.123 76.8022ZM155.35 75.2319L156.105 75.8876L156.113 75.8778L155.35 75.2319ZM156.123 70.9897V69.9897H155.123V70.9897H156.123ZM162.311 70.9897H163.311V69.9897H162.311V70.9897ZM161.678 77.4819L162.545 77.98L162.549 77.9721L161.678 77.4819ZM159.896 79.5209L159.264 78.7462L159.256 78.7527L159.896 79.5209ZM157.178 81.2084L157.598 82.116L157.604 82.1133L157.178 81.2084ZM153.662 82.4741L153.921 83.4399L153.929 83.4377L153.662 82.4741ZM136.248 82.4741L135.978 83.4369L135.985 83.4388L135.992 83.4407L136.248 82.4741ZM132.732 81.2084L132.301 82.1108L132.309 82.1146L132.318 82.1183L132.732 81.2084ZM130.014 79.5209L129.373 80.2892L129.381 80.2956L130.014 79.5209ZM128.256 77.4819L127.384 77.9722L127.389 77.98L128.256 77.4819ZM130.014 50.5287L129.381 49.754L129.373 49.7605L130.014 50.5287ZM132.732 48.8412L132.307 47.9364L132.301 47.9389L132.732 48.8412ZM136.248 47.5756L136.507 48.5415L136.515 48.5393L136.248 47.5756ZM144.967 47.4741C147.267 47.4741 149.435 47.6797 151.474 48.0875L151.866 46.1263C149.686 45.6903 147.386 45.4741 144.967 45.4741V47.4741ZM151.481 48.0888C153.525 48.4825 155.276 49.0375 156.745 49.7428L157.61 47.9397C155.955 47.145 154.034 46.5437 151.859 46.1249L151.481 48.0888ZM156.748 49.7444C158.234 50.4505 159.364 51.2745 160.177 52.1974L161.678 50.8757C160.647 49.7049 159.278 48.732 157.607 47.9381L156.748 49.7444ZM160.182 52.203C160.959 53.072 161.311 53.9812 161.311 54.9584H163.311C163.311 53.4357 162.74 52.0636 161.673 50.8701L160.182 52.203ZM161.311 54.9584V59.0834H163.311V54.9584H161.311ZM162.311 58.0834H156.123V60.0834H162.311V58.0834ZM157.123 59.0834V56.7866H155.123V59.0834H157.123ZM157.123 56.7866C157.123 55.8354 156.751 54.9731 156.113 54.2187L154.586 55.5106C154.979 55.975 155.123 56.394 155.123 56.7866H157.123ZM156.121 54.2283C155.486 53.4583 154.609 52.8385 153.547 52.3417L152.699 54.1533C153.575 54.5628 154.182 55.0211 154.578 55.5011L156.121 54.2283ZM153.564 52.3501C152.511 51.832 151.257 51.4416 149.821 51.1641L149.441 53.1278C150.755 53.3816 151.829 53.7255 152.682 54.1448L153.564 52.3501ZM149.831 51.1662C148.377 50.8688 146.753 50.7241 144.967 50.7241V52.7241C146.649 52.7241 148.135 52.8606 149.43 53.1256L149.831 51.1662ZM144.967 50.7241C143.243 50.7241 141.655 50.8609 140.207 51.1407L140.586 53.1043C141.888 52.8528 143.347 52.7241 144.967 52.7241V50.7241ZM140.218 51.1386C138.782 51.3996 137.518 51.7722 136.439 52.2688L137.276 54.0856C138.165 53.676 139.26 53.3454 140.575 53.1064L140.218 51.1386ZM136.439 52.2688C135.364 52.7636 134.471 53.3779 133.808 54.1359L135.313 55.4529C135.744 54.9608 136.382 54.497 137.276 54.0856L136.439 52.2688ZM133.807 54.1372C133.138 54.9044 132.764 55.7958 132.764 56.7866H134.764C134.764 56.3398 134.921 55.9031 135.314 55.4515L133.807 54.1372ZM132.764 56.7866V73.3334H134.764V56.7866H132.764ZM132.764 73.3334C132.764 74.3039 133.146 75.1782 133.807 75.9359L135.314 74.6216C134.912 74.1605 134.764 73.738 134.764 73.3334H132.764ZM133.816 75.9467C134.479 76.6847 135.369 77.2882 136.439 77.7809L137.276 75.9641C136.377 75.5505 135.736 75.0915 135.305 74.6108L133.816 75.9467ZM136.451 77.7863C137.522 78.2622 138.778 78.6331 140.207 78.909L140.586 76.9453C139.265 76.6901 138.162 76.3578 137.264 75.9587L136.451 77.7863ZM140.218 78.9111C141.662 79.1736 143.246 79.3022 144.967 79.3022V77.3022C143.344 77.3022 141.881 77.1807 140.575 76.9433L140.218 78.9111ZM144.967 79.3022C146.75 79.3022 148.37 79.1657 149.821 78.8856L149.441 76.9219C148.141 77.173 146.652 77.3022 144.967 77.3022V79.3022ZM149.831 78.8835C151.261 78.591 152.507 78.2023 153.552 77.7053L152.694 75.8991C151.833 76.3083 150.751 76.654 149.43 76.924L149.831 78.8835ZM153.547 77.708C154.599 77.2157 155.471 76.6177 156.105 75.8876L154.595 74.5762C154.197 75.0335 153.584 75.4824 152.699 75.8964L153.547 77.708ZM156.113 75.8778C156.747 75.1285 157.123 74.2745 157.123 73.3334H155.123C155.123 73.7049 154.983 74.1165 154.586 74.5859L156.113 75.8778ZM157.123 73.3334V70.9897H155.123V73.3334H157.123ZM156.123 71.9897H162.311V69.9897H156.123V71.9897ZM161.311 70.9897V75.1147H163.311V70.9897H161.311ZM161.311 75.1147C161.311 75.7642 161.147 76.3852 160.806 76.9916L162.549 77.9721C163.052 77.0785 163.311 76.1214 163.311 75.1147H161.311ZM160.811 76.9837C160.459 77.5963 159.951 78.1857 159.264 78.7463L160.529 80.2956C161.373 79.6061 162.053 78.8361 162.545 77.98L160.811 76.9837ZM159.256 78.7527C158.583 79.3136 157.752 79.8328 156.752 80.3036L157.604 82.1133C158.728 81.5841 159.71 80.9783 160.537 80.2892L159.256 78.7527ZM156.758 80.3009C155.768 80.759 154.648 81.1632 153.395 81.5104L153.929 83.4377C155.27 83.0662 156.494 82.6266 157.598 82.116L156.758 80.3009ZM153.403 81.5082C152.17 81.839 150.84 82.0965 149.41 82.279L149.664 84.2629C151.172 84.0703 152.592 83.7966 153.921 83.4399L153.403 81.5082ZM149.41 82.279C147.986 82.4608 146.505 82.5522 144.967 82.5522V84.5522C146.585 84.5522 148.15 84.4561 149.664 84.2629L149.41 82.279ZM144.967 82.5522C143.428 82.5522 141.947 82.4608 140.523 82.279L140.27 84.2629C141.783 84.4561 143.349 84.5522 144.967 84.5522V82.5522ZM140.523 82.279C139.094 82.0965 137.754 81.8388 136.504 81.5074L135.992 83.4407C137.335 83.7968 138.762 84.0704 140.27 84.2629L140.523 82.279ZM136.518 81.5112C135.28 81.1639 134.157 80.7589 133.147 80.2985L132.318 82.1183C133.433 82.6268 134.654 83.0655 135.978 83.4369L136.518 81.5112ZM133.163 80.3061C132.176 79.8347 131.34 79.313 130.646 78.7463L129.381 80.2956C130.218 80.9789 131.195 81.5822 132.301 82.1108L133.163 80.3061ZM130.654 78.7527C129.981 78.1922 129.478 77.601 129.123 76.9837L127.389 77.98C127.878 78.8315 128.546 79.5997 129.373 80.2892L130.654 78.7527ZM129.127 76.9916C128.786 76.3852 128.623 75.7642 128.623 75.1147H126.623C126.623 76.1214 126.882 77.0785 127.384 77.9721L129.127 76.9916ZM128.623 75.1147V54.9584H126.623V75.1147H128.623ZM128.623 54.9584C128.623 54.3089 128.786 53.6879 129.127 53.0815L127.384 52.101C126.882 52.9946 126.623 53.9517 126.623 54.9584H128.623ZM129.127 53.0815C129.482 52.4507 129.985 51.8545 130.654 51.297L129.373 49.7605C128.543 50.453 127.873 51.2318 127.384 52.101L129.127 53.0815ZM130.646 51.3034C131.34 50.7367 132.176 50.215 133.163 49.7436L132.301 47.9389C131.195 48.4675 130.218 49.0708 129.381 49.7541L130.646 51.3034ZM133.158 49.7461C134.161 49.2743 135.276 48.8718 136.507 48.5415L135.989 46.6098C134.658 46.967 133.429 47.4082 132.307 47.9364L133.158 49.7461ZM136.515 48.5393C137.762 48.1939 139.097 47.9293 140.523 47.7473L140.27 45.7634C138.758 45.9563 137.328 46.2386 135.981 46.6119L136.515 48.5393ZM140.523 47.7473C141.947 47.5655 143.428 47.4741 144.967 47.4741V45.4741C143.349 45.4741 141.783 45.5702 140.27 45.7634L140.523 47.7473ZM189.357 56.0834H190.357V55.0602L189.334 55.0837L189.357 56.0834ZM189.193 61.1694L190.191 61.2318L190.191 61.2312L189.193 61.1694ZM188.561 66.5834V67.5834H189.407L189.547 66.7492L188.561 66.5834ZM182.889 66.5834L181.922 66.3275L181.59 67.5834H182.889V66.5834ZM183.287 64.8491L184.268 65.0452L184.27 65.034L184.272 65.0228L183.287 64.8491ZM183.545 62.9975L182.553 62.8682L182.552 62.8776L182.551 62.8871L183.545 62.9975ZM183.686 60.7241H184.686V59.7011L183.663 59.7243L183.686 60.7241ZM180.264 61.1225L180.502 62.0937L180.514 62.0906L180.264 61.1225ZM178.037 61.9194L178.484 62.8138L178.494 62.8091L178.503 62.8043L178.037 61.9194ZM175.576 63.5834L175.042 62.7379L174.576 63.0323V63.5834H175.576ZM175.576 82.8022V83.8022H176.576V82.8022H175.576ZM169.576 82.8022H168.576V83.8022H169.576V82.8022ZM169.576 63.4428H170.576V63.3806L170.568 63.3188L169.576 63.4428ZM169.131 62.1772L168.287 62.7141L168.296 62.7274L168.305 62.7405L169.131 62.1772ZM168.428 61.3334L167.741 62.0604L167.755 62.0735L167.769 62.086L168.428 61.3334ZM167.467 60.6772L166.587 60.2015L166.087 61.1259L167.035 61.5793L167.467 60.6772ZM169.951 56.0834L170.283 55.14L169.478 54.8571L169.072 55.6077L169.951 56.0834ZM171.662 56.9037L172.185 56.0511L172.184 56.0505L171.662 56.9037ZM173.186 58.0522L172.524 58.802L172.536 58.8123L172.548 58.8222L173.186 58.0522ZM174.639 59.7397L173.792 60.2715L174.346 61.1536L175.205 60.5642L174.639 59.7397ZM176.842 58.3569L177.329 59.2301L177.337 59.2258L177.344 59.2214L176.842 58.3569ZM178.787 57.3725L178.404 56.4487L178.396 56.4522L178.787 57.3725ZM180.756 56.7631L180.961 57.7419L180.969 57.7402L180.977 57.7383L180.756 56.7631ZM183.006 56.3881L182.893 55.3945L182.891 55.3947L183.006 56.3881ZM185.771 56.2006L185.802 57.2001L185.81 57.1999L185.817 57.1996L185.771 56.2006ZM188.357 56.0834C188.357 57.6861 188.303 59.3607 188.195 61.1075L190.191 61.2312C190.302 59.4468 190.357 57.7308 190.357 56.0834H188.357ZM188.195 61.107C188.088 62.8199 187.882 64.59 187.574 66.4177L189.547 66.7492C189.865 64.8581 190.08 63.0189 190.191 61.2318L188.195 61.107ZM188.561 65.5834H182.889V67.5834H188.561V65.5834ZM183.855 66.8393C184.002 66.2855 184.139 65.6872 184.268 65.0452L182.307 64.6529C182.185 65.261 182.057 65.8189 181.922 66.3275L183.855 66.8393ZM184.272 65.0228C184.37 64.4653 184.459 63.8262 184.539 63.1079L182.551 62.8871C182.475 63.5751 182.391 64.1703 182.302 64.6753L184.272 65.0228ZM184.537 63.1268C184.636 62.3612 184.686 61.56 184.686 60.7241H182.686C182.686 61.4819 182.641 62.1963 182.553 62.8682L184.537 63.1268ZM183.663 59.7243C182.243 59.7566 181.02 59.894 180.013 60.1544L180.514 62.0906C181.32 61.8822 182.378 61.754 183.708 61.7238L183.663 59.7243ZM180.025 60.1514C179.082 60.383 178.258 60.6731 177.571 61.0345L178.503 62.8043C179.004 62.5406 179.664 62.2995 180.502 62.0936L180.025 60.1514ZM177.59 61.0249C176.95 61.3449 176.395 61.6893 175.944 62.0652L177.224 63.6017C177.523 63.3526 177.937 63.0876 178.484 62.8138L177.59 61.0249ZM175.944 62.0652C175.591 62.3596 175.291 62.5809 175.042 62.7379L176.11 64.4289C176.455 64.211 176.827 63.9323 177.224 63.6017L175.944 62.0652ZM174.576 63.5834V82.8022H176.576V63.5834H174.576ZM175.576 81.8022H169.576V83.8022H175.576V81.8022ZM170.576 82.8022V63.4428H168.576V82.8022H170.576ZM170.568 63.3188C170.49 62.6941 170.298 62.1137 169.957 61.6138L168.305 62.7405C168.433 62.9282 168.537 63.1915 168.584 63.5668L170.568 63.3188ZM169.975 61.6403C169.716 61.2337 169.422 60.8746 169.086 60.5809L167.769 62.086C167.933 62.2297 168.108 62.4332 168.287 62.7141L169.975 61.6403ZM169.114 60.6064C168.755 60.2674 168.348 59.9904 167.898 59.7751L167.035 61.5793C167.304 61.7078 167.538 61.8682 167.741 62.0604L169.114 60.6064ZM168.346 61.1529L170.831 56.5591L169.072 55.6077L166.587 60.2015L168.346 61.1529ZM169.62 57.0269C170.127 57.205 170.634 57.4472 171.141 57.757L172.184 56.0505C171.566 55.6728 170.932 55.3681 170.283 55.14L169.62 57.0269ZM171.14 57.7563C171.564 58.0167 172.026 58.3626 172.524 58.802L173.847 57.3023C173.283 56.8043 172.729 56.3845 172.185 56.0511L171.14 57.7563ZM172.548 58.8222C173.004 59.2001 173.42 59.6792 173.792 60.2715L175.486 59.2079C175.014 58.4565 174.461 57.8105 173.824 57.2822L172.548 58.8222ZM175.205 60.5642C175.982 60.0306 176.69 59.5868 177.329 59.2301L176.354 57.4837C175.65 57.8769 174.889 58.3551 174.073 58.9152L175.205 60.5642ZM177.344 59.2214C177.985 58.8487 178.597 58.5401 179.178 58.2928L178.396 56.4522C177.728 56.7362 177.042 57.0838 176.339 57.4924L177.344 59.2214ZM179.17 58.2962C179.754 58.0542 180.35 57.8696 180.961 57.7419L180.551 55.7843C179.818 55.9378 179.102 56.1595 178.404 56.4488L179.17 58.2962ZM180.977 57.7383C181.625 57.5912 182.338 57.4718 183.12 57.3815L182.891 55.3947C182.048 55.492 181.262 55.6226 180.534 55.788L180.977 57.7383ZM183.118 57.3818C183.914 57.2917 184.808 57.2307 185.802 57.2001L185.741 55.2011C184.703 55.233 183.754 55.2971 182.893 55.3945L183.118 57.3818ZM185.817 57.1996C186.839 57.1531 188.026 57.1143 189.38 57.0832L189.334 55.0837C187.97 55.1151 186.767 55.1544 185.726 55.2017L185.817 57.1996ZM221.842 73.2397H222.842V72.7876L222.502 72.489L221.842 73.2397ZM218.256 71.3647L217.956 72.3185L217.964 72.3211L217.972 72.3235L218.256 71.3647ZM215.232 70.7319L215.085 71.721L215.093 71.7221L215.1 71.7231L215.232 70.7319ZM207.193 70.5678L207.231 71.5672L207.243 71.5666L207.193 70.5678ZM203.936 71.0366L204.193 72.0028L204.201 72.0008L204.208 71.9987L203.936 71.0366ZM200.889 77.5991H199.889V78.4525L200.732 78.5866L200.889 77.5991ZM216.146 78.185L216.206 79.1832L216.214 79.1827L216.146 78.185ZM221.842 77.4584L222.023 78.4419L222.842 78.2912V77.4584H221.842ZM217.6 56.6225L217.433 57.6086L217.446 57.6106L217.6 56.6225ZM221.162 57.4194L220.881 58.3789L220.888 58.3812L220.896 58.3833L221.162 57.4194ZM224.35 58.7319L223.846 59.5957L223.854 59.6006L223.863 59.6054L224.35 58.7319ZM227.514 81.4428L227.712 82.4229L228.514 82.2607V81.4428H227.514ZM223.061 82.1225L222.948 81.1288L222.941 81.1297L223.061 82.1225ZM203.701 82.4975L203.626 83.4947L203.627 83.4947L203.701 82.4975ZM195.217 81.4428H194.217V82.2877L195.05 82.4288L195.217 81.4428ZM195.85 70.6381L195.006 70.1012L195.003 70.1064L195.85 70.6381ZM207.217 66.56L207.266 67.5589L207.278 67.5581L207.217 66.56ZM215.912 66.8178L215.729 67.801L215.742 67.8033L215.912 66.8178ZM219.287 67.5912L219.603 66.6426L219.596 66.6401L219.588 66.6377L219.287 67.5912ZM221.842 68.7397L221.31 69.5866L222.842 70.5484V68.7397H221.842ZM221.373 63.3022L220.541 63.8569L220.545 63.8634L220.55 63.8699L221.373 63.3022ZM220.107 62.1303L219.582 62.9811L219.591 62.9868L219.6 62.9922L220.107 62.1303ZM218.279 61.3569L217.996 62.3159L218.006 62.3189L218.016 62.3216L218.279 61.3569ZM213.826 60.6772L213.785 61.6764L213.786 61.6764L213.826 60.6772ZM209.42 60.7006L209.459 61.6999L209.469 61.6995L209.479 61.6989L209.42 60.7006ZM207.029 60.9116L206.893 59.9208L206.891 59.9212L207.029 60.9116ZM204.756 61.3803L205.008 62.3479L205.015 62.3461L205.022 62.3441L204.756 61.3803ZM201.475 63.3491L200.668 62.7577L200.665 62.7626L201.475 63.3491ZM200.982 64.9897L200.733 65.958L201.982 66.2805V64.9897H200.982ZM195.17 63.4897H194.17V64.2644L194.92 64.458L195.17 63.4897ZM195.943 60.7709L196.773 61.3296L196.778 61.3218L195.943 60.7709ZM197.982 58.7787L197.446 57.9351L197.439 57.9396L197.982 58.7787ZM200.936 57.4428L201.232 58.3981L201.244 58.3941L200.936 57.4428ZM204.381 56.6225L204.537 57.6103L204.547 57.6085L204.381 56.6225ZM222.502 72.489C222.048 72.0895 221.504 71.7153 220.882 71.3622L219.895 73.1016C220.429 73.4047 220.854 73.7024 221.181 73.9904L222.502 72.489ZM220.882 71.3622C220.221 70.9866 219.435 70.671 218.54 70.4059L217.972 72.3235C218.764 72.5584 219.4 72.8209 219.895 73.1016L220.882 71.3622ZM218.556 70.4108C217.643 70.1233 216.576 69.9021 215.365 69.7406L215.1 71.7231C216.233 71.8741 217.181 72.0748 217.956 72.3185L218.556 70.4108ZM215.379 69.7427C214.161 69.5617 212.751 69.4741 211.154 69.4741V71.4741C212.683 71.4741 213.991 71.5583 215.085 71.721L215.379 69.7427ZM211.154 69.4741C209.749 69.4741 208.412 69.5056 207.143 69.5691L207.243 71.5666C208.475 71.505 209.779 71.4741 211.154 71.4741V69.4741ZM207.155 69.5685C205.862 69.6177 204.694 69.7823 203.663 70.0744L204.208 71.9987C205.052 71.7596 206.056 71.6117 207.231 71.5671L207.155 69.5685ZM203.678 70.0703C202.607 70.3559 201.692 70.8387 200.992 71.5582L202.426 72.9524C202.82 72.5469 203.389 72.2172 204.193 72.0028L203.678 70.0703ZM200.992 71.5582C200.217 72.3549 199.889 73.4134 199.889 74.5991H201.889C201.889 73.7847 202.107 73.2808 202.426 72.9524L200.992 71.5582ZM199.889 74.5991V77.5991H201.889V74.5991H199.889ZM200.732 78.5866C202.135 78.8099 203.675 78.9922 205.351 79.1345L205.52 77.1417C203.884 77.0028 202.393 76.8258 201.046 76.6115L200.732 78.5866ZM205.351 79.1345C207.041 79.278 208.913 79.3491 210.967 79.3491V77.3491C208.958 77.3491 207.143 77.2795 205.52 77.1417L205.351 79.1345ZM210.967 79.3491C212.614 79.3491 214.361 79.2936 216.206 79.1832L216.087 77.1868C214.276 77.2951 212.57 77.3491 210.967 77.3491V79.3491ZM216.214 79.1827C218.099 79.0549 220.035 78.8077 222.023 78.4419L221.661 76.4749C219.742 76.8279 217.882 77.065 216.079 77.1873L216.214 79.1827ZM222.842 77.4584V73.2397H220.842V77.4584H222.842ZM211.295 57.0834C212.045 57.0834 212.966 57.121 214.061 57.1982L214.201 55.2031C213.077 55.1239 212.107 55.0834 211.295 55.0834V57.0834ZM214.061 57.1982C215.135 57.2738 216.259 57.4103 217.433 57.6085L217.766 55.6365C216.534 55.4285 215.346 55.2837 214.201 55.2031L214.061 57.1982ZM217.446 57.6106C218.606 57.7913 219.75 58.0474 220.881 58.3789L221.444 56.4598C220.23 56.1038 219 55.8287 217.754 55.6344L217.446 57.6106ZM220.896 58.3833C222.011 58.6914 222.992 59.0976 223.846 59.5957L224.853 57.8681C223.832 57.2723 222.688 56.8036 221.428 56.4555L220.896 58.3833ZM223.863 59.6054C224.715 60.0805 225.371 60.6368 225.854 61.2643L227.438 60.0432C226.766 59.1707 225.89 58.4457 224.836 57.8584L223.863 59.6054ZM225.854 61.2643C226.288 61.8262 226.514 62.4904 226.514 63.3022H228.514C228.514 62.0828 228.162 60.9813 227.438 60.0432L225.854 61.2643ZM226.514 63.3022V81.4428H228.514V63.3022H226.514ZM227.315 80.4627C226.037 80.7214 224.582 80.9439 222.948 81.1288L223.173 83.1162C224.851 82.9261 226.365 82.6955 227.712 82.4229L227.315 80.4627ZM222.941 81.1297C221.54 81.2991 219.861 81.4539 217.903 81.5938L218.046 83.5887C220.025 83.4473 221.738 83.2897 223.181 83.1153L222.941 81.1297ZM217.903 81.5938C215.963 81.7324 213.792 81.8022 211.389 81.8022V83.8022C213.829 83.8022 216.049 83.7314 218.046 83.5887L217.903 81.5938ZM211.389 81.8022C209.01 81.8022 206.473 81.7018 203.776 81.5003L203.627 83.4947C206.367 83.6995 208.955 83.8022 211.389 83.8022V81.8022ZM203.776 81.5003C201.107 81.2997 198.309 80.9522 195.384 80.4568L195.05 82.4288C198.03 82.9334 200.889 83.289 203.626 83.4947L203.776 81.5003ZM196.217 81.4428V73.0053H194.217V81.4428H196.217ZM196.217 73.0053C196.217 72.2598 196.388 71.6607 196.696 71.1699L195.003 70.1064C194.467 70.9593 194.217 71.9383 194.217 73.0053H196.217ZM196.693 71.175C197.046 70.6203 197.533 70.1341 198.173 69.7203L197.088 68.0403C196.229 68.5953 195.528 69.2809 195.006 70.1012L196.693 71.175ZM198.173 69.7203C198.833 69.2942 199.629 68.9312 200.573 68.6408L199.985 66.7292C198.898 67.0638 197.928 67.4977 197.088 68.0403L198.173 69.7203ZM200.573 68.6408C201.54 68.3435 202.587 68.1034 203.719 67.9224L203.403 65.9476C202.19 66.1416 201.05 66.4015 199.985 66.7292L200.573 68.6408ZM203.719 67.9224C204.852 67.7411 206.034 67.6196 207.266 67.5588L207.167 65.5612C205.868 65.6254 204.613 65.7539 203.403 65.9476L203.719 67.9224ZM207.278 67.5581C208.524 67.4812 209.769 67.4428 211.014 67.4428V65.4428C209.727 65.4428 208.441 65.4825 207.155 65.5619L207.278 67.5581ZM211.014 67.4428C212.897 67.4428 214.465 67.5657 215.729 67.8009L216.095 65.8347C214.672 65.57 212.974 65.4428 211.014 65.4428V67.4428ZM215.742 67.8033C217.076 68.0332 218.153 68.2819 218.986 68.5448L219.588 66.6377C218.64 66.3381 217.467 66.0711 216.082 65.8323L215.742 67.8033ZM218.971 68.5399C219.952 68.867 220.725 69.2194 221.31 69.5866L222.374 67.8928C221.615 67.4162 220.684 67.0029 219.603 66.6426L218.971 68.5399ZM222.842 68.7397V64.9428H220.842V68.7397H222.842ZM222.842 64.9428C222.842 64.1336 222.642 63.3806 222.196 62.7345L220.55 63.8699C220.729 64.13 220.842 64.4708 220.842 64.9428H222.842ZM222.205 62.7475C221.801 62.1416 221.263 61.6501 220.614 61.2684L219.6 62.9922C220.014 63.2355 220.32 63.5252 220.541 63.8569L222.205 62.7475ZM220.633 61.2795C220.01 60.8945 219.31 60.6013 218.542 60.3921L218.016 62.3216C218.624 62.4874 219.143 62.7099 219.582 62.9811L220.633 61.2795ZM218.563 60.3979C217.827 60.1805 217.062 60.0144 216.267 59.8986L215.979 61.8777C216.684 61.9806 217.357 62.127 217.996 62.3159L218.563 60.3979ZM216.267 59.8986C215.482 59.784 214.681 59.7106 213.866 59.678L213.786 61.6764C214.534 61.7063 215.264 61.7735 215.979 61.8777L216.267 59.8986ZM213.867 59.678C213.09 59.6463 212.357 59.6303 211.67 59.6303V61.6303C212.326 61.6303 213.032 61.6456 213.785 61.6764L213.867 59.678ZM211.67 59.6303C210.945 59.6303 210.175 59.6545 209.361 59.7023L209.479 61.6989C210.259 61.653 210.989 61.6303 211.67 61.6303V59.6303ZM209.381 59.7014C208.551 59.7339 207.722 59.8071 206.893 59.9208L207.165 61.9023C207.93 61.7973 208.695 61.7298 209.459 61.6999L209.381 59.7014ZM206.891 59.9212C206.068 60.0364 205.267 60.2013 204.489 60.4165L205.022 62.3441C205.713 62.153 206.428 62.0054 207.168 61.9019L206.891 59.9212ZM204.503 60.4127C203.709 60.62 202.981 60.91 202.33 61.29L203.338 63.0175C203.812 62.7412 204.366 62.5156 205.008 62.3479L204.503 60.4127ZM202.33 61.29C201.663 61.6789 201.102 62.1658 200.668 62.7577L202.281 63.9404C202.534 63.5948 202.88 63.2849 203.338 63.0175L202.33 61.29ZM200.665 62.7626C200.196 63.4103 199.982 64.1702 199.982 64.9897H201.982C201.982 64.5279 202.097 64.1941 202.285 63.9356L200.665 62.7626ZM201.232 64.0214L195.42 62.5214L194.92 64.458L200.733 65.958L201.232 64.0214ZM196.17 63.4897C196.17 62.6142 196.383 61.9086 196.773 61.3295L195.114 60.2123C194.473 61.1645 194.17 62.2714 194.17 63.4897H196.17ZM196.778 61.3218C197.212 60.664 197.79 60.0954 198.526 59.6179L197.439 57.9396C196.488 58.5559 195.706 59.3154 195.109 60.2201L196.778 61.3218ZM198.519 59.6224C199.294 59.1294 200.195 58.7191 201.232 58.398L200.64 56.4876C199.457 56.8541 198.39 57.3344 197.446 57.9351L198.519 59.6224ZM201.244 58.3941C202.302 58.0514 203.399 57.7899 204.537 57.6103L204.225 55.6347C202.987 55.8301 201.788 56.1155 200.627 56.4915L201.244 58.3941ZM204.547 57.6085C205.718 57.4109 206.88 57.2743 208.032 57.1985L207.901 55.2028C206.679 55.2832 205.45 55.4278 204.214 55.6365L204.547 57.6085ZM208.032 57.1985C209.201 57.1216 210.289 57.0834 211.295 57.0834V55.0834C210.239 55.0834 209.107 55.1234 207.901 55.2028L208.032 57.1985ZM247.998 51.2553V52.2553H248.998V51.2553H247.998ZM244.834 52.0287L245.373 52.8711L245.381 52.8657L244.834 52.0287ZM243.92 52.9897L244.784 53.4936L244.788 53.486L244.792 53.4783L243.92 52.9897ZM243.592 55.7553H242.592V56.7553H243.592V55.7553ZM249.639 55.7553H250.639V54.7553H249.639V55.7553ZM249.639 59.6928V60.6928H250.639V59.6928H249.639ZM243.592 59.6928V58.6928H242.592V59.6928H243.592ZM243.592 82.8022V83.8022H244.592V82.8022H243.592ZM237.498 82.8022H236.498V83.8022H237.498V82.8022ZM237.498 59.6928H238.498V58.6928H237.498V59.6928ZM233.701 59.6928H232.701V60.6928H233.701V59.6928ZM233.701 55.7553V54.7553H232.701V55.7553H233.701ZM237.498 55.7553V56.7553H238.498V55.7553H237.498ZM240.24 49.4037L240.851 50.1953L240.853 50.1938L240.24 49.4037ZM247.998 47.1772H248.998V46.1772H247.998V47.1772ZM247.998 50.2553C247.293 50.2553 246.629 50.324 246.011 50.4694L246.469 52.4162C246.914 52.3116 247.422 52.2553 247.998 52.2553V50.2553ZM246.011 50.4694C245.381 50.6177 244.802 50.8551 244.287 51.1918L245.381 52.8657C245.679 52.6711 246.037 52.5179 246.469 52.4162L246.011 50.4694ZM244.295 51.1865C243.771 51.5218 243.349 51.9617 243.047 52.5011L244.792 53.4783C244.928 53.2364 245.116 53.0357 245.373 52.871L244.295 51.1865ZM243.056 52.4858C242.735 53.0357 242.592 53.6524 242.592 54.3022H244.592C244.592 53.952 244.667 53.6937 244.784 53.4936L243.056 52.4858ZM242.592 54.3022V55.7553H244.592V54.3022H242.592ZM243.592 56.7553H249.639V54.7553H243.592V56.7553ZM248.639 55.7553V59.6928H250.639V55.7553H248.639ZM249.639 58.6928H243.592V60.6928H249.639V58.6928ZM242.592 59.6928V82.8022H244.592V59.6928H242.592ZM243.592 81.8022H237.498V83.8022H243.592V81.8022ZM238.498 82.8022V59.6928H236.498V82.8022H238.498ZM237.498 58.6928H233.701V60.6928H237.498V58.6928ZM234.701 59.6928V55.7553H232.701V59.6928H234.701ZM233.701 56.7553H237.498V54.7553H233.701V56.7553ZM238.498 55.7553V54.9584H236.498V55.7553H238.498ZM238.498 54.9584C238.498 53.9951 238.7 53.1157 239.099 52.306L237.304 51.4234C236.765 52.52 236.498 53.703 236.498 54.9584H238.498ZM239.099 52.306C239.496 51.4981 240.074 50.7952 240.851 50.1953L239.629 48.6122C238.625 49.3873 237.844 50.3251 237.304 51.4234L239.099 52.306ZM240.853 50.1938C241.647 49.5782 242.633 49.0821 243.833 48.7206L243.257 46.8056C241.863 47.2254 240.646 47.823 239.627 48.6137L240.853 50.1938ZM243.833 48.7206C245.018 48.3639 246.402 48.1772 247.998 48.1772V46.1772C246.25 46.1772 244.666 46.3811 243.257 46.8056L243.833 48.7206ZM246.998 47.1772V51.2553H248.998V47.1772H246.998ZM263.607 55.7553H262.607V56.7553H263.607V55.7553ZM269.561 55.7553H270.561V54.7553H269.561V55.7553ZM269.561 59.6928V60.6928H270.561V59.6928H269.561ZM263.607 59.6928V58.6928H262.607V59.6928H263.607ZM263.607 82.8022V83.8022H264.607V82.8022H263.607ZM258.029 82.8022H257.029V83.8022H258.029V82.8022ZM258.029 59.6928H259.029V58.6928H258.029V59.6928ZM253.623 59.6928H252.623V60.6928H253.623V59.6928ZM253.623 55.7553V54.7553H252.623V55.7553H253.623ZM258.029 55.7553V56.7553H259.029V55.7553H258.029ZM258.029 47.5991V46.5991H257.029V47.5991H258.029ZM263.607 47.5991H264.607V46.5991H263.607V47.5991ZM263.607 56.7553H269.561V54.7553H263.607V56.7553ZM268.561 55.7553V59.6928H270.561V55.7553H268.561ZM269.561 58.6928H263.607V60.6928H269.561V58.6928ZM262.607 59.6928V82.8022H264.607V59.6928H262.607ZM263.607 81.8022H258.029V83.8022H263.607V81.8022ZM259.029 82.8022V59.6928H257.029V82.8022H259.029ZM258.029 58.6928H253.623V60.6928H258.029V58.6928ZM254.623 59.6928V55.7553H252.623V59.6928H254.623ZM253.623 56.7553H258.029V54.7553H253.623V56.7553ZM259.029 55.7553V47.5991H257.029V55.7553H259.029ZM258.029 48.5991H263.607V46.5991H258.029V48.5991ZM262.607 47.5991V55.7553H264.607V47.5991H262.607Z" fill="#E77B18"/>
<path d="M14.2639 52.678C20.3333 53.8779 34.8489 58.3972 54.5528 53.9866C71.0523 49.7392 86.8228 32.899 96.9038 19.1116C81.0135 30.5898 68.6668 27.7712 49.5478 31.3185C28.5637 35.8046 22.9955 43.9776 14.2639 52.678Z" fill="#528839"/>
<path d="M1.2555 84.703C7.1916 85.9157 21.3308 90.4193 40.8928 86.2831C57.2928 82.2809 73.4155 66.0332 83.8274 52.7094C67.7743 63.7443 55.7119 60.9102 36.7563 64.212C15.9307 68.4118 10.1602 76.3132 1.2555 84.703Z" fill="#528839"/>
<path d="M21.4939 99.7799C27.583 102.75 41.3689 111.346 65.0504 113.464C85.1416 114.736 110.366 104.375 127.915 95.0142C105.085 100.481 92.876 94.0976 70.2425 91.3794C45.1219 88.9328 35.1663 94.6082 21.4939 99.7799Z" fill="#528839"/>
<path d="M97.8258 114.668C106.014 116.944 124.571 124.122 156.315 122.772C183.241 121.058 216.92 105.972 240.328 93.1488C209.804 102.573 193.383 97.5453 163.036 98.0855C129.361 99.3019 116.085 106.971 97.8258 114.668Z" fill="#528839"/>
<path d="M211.682 112.488C218.003 113.714 232.43 117.991 256.432 115.205C276.763 112.419 301.55 99.3433 318.662 88.5218C295.986 97.2237 283.286 94.4212 260.303 96.5285C234.83 99.3243 225.145 105.756 211.682 112.488Z" fill="#528839"/>
</svg>
