<svg width="40" height="40" viewBox="0 0 40 40" fill="none" xmlns="http://www.w3.org/2000/svg">
<g filter="url(#filter0_d)">
<rect x="4" y="3" width="32" height="32" rx="4" fill="#6F9B10"/>
</g>
<path fill-rule="evenodd" clip-rule="evenodd" d="M30 19C30 24.5228 25.5228 29 20 29C14.4772 29 10 24.5228 10 19C10 13.4772 14.4772 9 20 9C25.5228 9 30 13.4772 30 19ZM20 13C20.5523 13 21 13.4477 21 14V18H25C25.5523 18 26 18.4477 26 19C26 19.5523 25.5523 20 25 20H21V24C21 24.5523 20.5523 25 20 25C19.4477 25 19 24.5523 19 24V20H15C14.4477 20 14 19.5523 14 19C14 18.4477 14.4477 18 15 18H19V14C19 13.4477 19.4477 13 20 13Z" fill="white"/>
<defs>
<filter id="filter0_d" x="0" y="0" width="40" height="40" filterUnits="userSpaceOnUse" color-interpolation-filters="sRGB">
<feFlood flood-opacity="0" result="BackgroundImageFix"/>
<feColorMatrix in="SourceAlpha" type="matrix" values="0 0 0 0 0 0 0 0 0 0 0 0 0 0 0 0 0 0 127 0"/>
<feOffset dy="1"/>
<feGaussianBlur stdDeviation="2"/>
<feColorMatrix type="matrix" values="0 0 0 0 0 0 0 0 0 0 0 0 0 0 0 0 0 0 0.25 0"/>
<feBlend mode="normal" in2="BackgroundImageFix" result="effect1_dropShadow"/>
<feBlend mode="normal" in="SourceGraphic" in2="effect1_dropShadow" result="shape"/>
</filter>
</defs>
</svg>
