<svg width="32" height="32" viewBox="0 0 32 32" fill="none" xmlns="http://www.w3.org/2000/svg">
<path d="M0 4C0 1.79086 1.79086 0 4 0H28C30.2091 0 32 1.79086 32 4V28C32 30.2091 30.2091 32 28 32H4C1.79086 32 0 30.2091 0 28V4Z" fill="#577A0C"/>
<path fill-rule="evenodd" clip-rule="evenodd" d="M27 16C27 22.0751 22.0751 27 16 27C9.92487 27 5 22.0751 5 16C5 9.92487 9.92487 5 16 5C22.0751 5 27 9.92487 27 16ZM16 9.4C16.6075 9.4 17.1 9.89249 17.1 10.5V14.9H21.5C22.1075 14.9 22.6 15.3925 22.6 16C22.6 16.6075 22.1075 17.1 21.5 17.1H17.1V21.5C17.1 22.1075 16.6075 22.6 16 22.6C15.3925 22.6 14.9 22.1075 14.9 21.5V17.1H10.5C9.89249 17.1 9.4 16.6075 9.4 16C9.4 15.3925 9.89249 14.9 10.5 14.9H14.9V10.5C14.9 9.89249 15.3925 9.4 16 9.4Z" fill="white"/>
</svg>
