<svg width="26" height="26" viewBox="0 0 26 26" fill="none" xmlns="http://www.w3.org/2000/svg">
<path d="M13 9.75C12.138 9.75 11.3114 10.0924 10.7019 10.7019C10.0924 11.3114 9.75 12.138 9.75 13C9.75 13.862 10.0924 14.6886 10.7019 15.2981C11.3114 15.9076 12.138 16.25 13 16.25C13.862 16.25 14.6886 15.9076 15.2981 15.2981C15.9076 14.6886 16.25 13.862 16.25 13C16.25 12.138 15.9076 11.3114 15.2981 10.7019C14.6886 10.0924 13.862 9.75 13 9.75V9.75ZM11.375 13C11.375 12.569 11.5462 12.1557 11.851 11.851C12.1557 11.5462 12.569 11.375 13 11.375C13.431 11.375 13.8443 11.5462 14.149 11.851C14.4538 12.1557 14.625 12.569 14.625 13C14.625 13.431 14.4538 13.8443 14.149 14.149C13.8443 14.4538 13.431 14.625 13 14.625C12.569 14.625 12.1557 14.4538 11.851 14.149C11.5462 13.8443 11.375 13.431 11.375 13V13Z" fill="white"/>
<path d="M17.2543 7.14682C16.9546 7.20187 16.6452 7.13578 16.3942 6.96304C16.1432 6.7903 15.9709 6.52503 15.9153 6.22544L15.4928 3.92444C15.472 3.81238 15.4185 3.70901 15.3389 3.62742C15.2594 3.54584 15.1574 3.48972 15.0459 3.46619C13.6964 3.18005 12.302 3.18005 10.9525 3.46619C10.841 3.48972 10.739 3.54584 10.6595 3.62742C10.5799 3.70901 10.5264 3.81238 10.5056 3.92444L10.0848 6.22544C10.054 6.38932 9.98814 6.5446 9.89163 6.68057C9.79512 6.81654 9.67029 6.92998 9.52573 7.01307C9.38116 7.09617 9.22031 7.14694 9.05424 7.16189C8.88817 7.17684 8.72084 7.15562 8.56376 7.09969L6.35538 6.31319C6.24823 6.27481 6.13211 6.26899 6.02165 6.29646C5.91119 6.32393 5.81133 6.38346 5.73463 6.46757C4.81001 7.48644 4.10963 8.68894 3.68388 9.99869C3.64871 10.1069 3.64663 10.2232 3.67789 10.3326C3.70916 10.442 3.77235 10.5396 3.85938 10.6129L5.65013 12.1258C5.77737 12.2332 5.87964 12.3671 5.94979 12.5181C6.01994 12.6691 6.05628 12.8336 6.05628 13.0001C6.05628 13.1666 6.01994 13.3311 5.94979 13.4821C5.87964 13.6331 5.77737 13.7669 5.65013 13.8743L3.85938 15.3872C3.77235 15.4605 3.70916 15.5581 3.67789 15.6675C3.64663 15.777 3.64871 15.8932 3.68388 16.0014C4.11041 17.3105 4.80995 18.514 5.73626 19.5326C5.81296 19.6167 5.91282 19.6762 6.02328 19.7037C6.13373 19.7311 6.24985 19.7253 6.35701 19.6869L8.56701 18.9004C8.72406 18.8439 8.89153 18.8223 9.0578 18.837C9.22407 18.8517 9.38514 18.9024 9.52985 18.9855C9.67456 19.0687 9.79944 19.1824 9.89583 19.3187C9.99221 19.4549 10.0578 19.6105 10.088 19.7747L10.5073 22.0757C10.5495 22.3032 10.7266 22.4852 10.9541 22.5323C12.3041 22.8185 13.6991 22.8185 15.0491 22.5323C15.1602 22.5088 15.2618 22.4529 15.3411 22.3716C15.4203 22.2903 15.4737 22.1873 15.4944 22.0757L15.9169 19.7747C15.9476 19.6108 16.0135 19.4555 16.11 19.3196C16.2065 19.1836 16.3314 19.0701 16.4759 18.9871C16.6205 18.904 16.7813 18.8532 16.9474 18.8382C17.1135 18.8233 17.2808 18.8445 17.4379 18.9004L19.6463 19.6869C19.8656 19.7649 20.111 19.7032 20.267 19.5326C21.1916 18.5137 21.892 17.3112 22.3178 16.0014C22.3529 15.8932 22.355 15.777 22.3237 15.6675C22.2925 15.5581 22.2293 15.4605 22.1423 15.3872L20.3515 13.8743C20.224 13.7671 20.1215 13.6333 20.0512 13.4822C19.9809 13.3312 19.9445 13.1667 19.9445 13.0001C19.9445 12.8335 19.9809 12.6689 20.0512 12.5179C20.1215 12.3669 20.224 12.233 20.3515 12.1258L22.1423 10.6129C22.2293 10.5396 22.2925 10.442 22.3237 10.3326C22.355 10.2232 22.3529 10.1069 22.3178 9.99869C21.8908 8.68951 21.1907 7.48592 20.2638 6.46757C20.1871 6.38346 20.0872 6.32393 19.9767 6.29646C19.8663 6.26899 19.7502 6.27481 19.643 6.31319L17.433 7.09969C17.3743 7.12079 17.314 7.13709 17.2526 7.14844L17.2543 7.14682ZM6.49676 8.08932L8.01938 8.63044C8.39825 8.76532 8.80188 8.81635 9.20239 8.78002C9.60291 8.74369 9.99076 8.62085 10.3392 8.41999C10.6876 8.21913 10.9882 7.94505 11.2204 7.61665C11.4525 7.28826 11.6106 6.91339 11.6838 6.51794L11.9714 4.94169C12.6539 4.85647 13.3444 4.85647 14.027 4.94169L14.3163 6.51794C14.3889 6.91367 14.5467 7.28887 14.7787 7.61756C15.0107 7.94626 15.3114 8.22058 15.66 8.42152C16.0085 8.62246 16.3966 8.74522 16.7973 8.7813C17.198 8.81737 17.6018 8.7659 17.9806 8.63044L19.5 8.08769C19.9144 8.63044 20.2589 9.22194 20.5238 9.84919L19.2985 10.8843C18.9906 11.1442 18.7432 11.4682 18.5735 11.8337C18.4038 12.1991 18.3158 12.5971 18.3158 13.0001C18.3158 13.403 18.4038 13.801 18.5735 14.1665C18.7432 14.5319 18.9906 14.8559 19.2985 15.1158L20.5254 16.1509C20.2595 16.7788 19.9156 17.3706 19.5016 17.9124L17.979 17.3697C17.6001 17.2348 17.1965 17.1838 16.796 17.2201C16.3955 17.2564 16.0076 17.3793 15.6592 17.5801C15.3108 17.781 15.0102 18.0551 14.778 18.3835C14.5459 18.7119 14.3878 19.0867 14.3146 19.4822L14.0254 21.0584C13.3428 21.1438 12.6523 21.1438 11.9698 21.0584L11.6821 19.4822C11.6095 19.0865 11.4517 18.7113 11.2197 18.3826C10.9877 18.0539 10.687 17.7796 10.3384 17.5786C9.98987 17.3777 9.60179 17.2549 9.20108 17.2188C8.80037 17.1828 8.3966 17.2342 8.01776 17.3697L6.50001 17.9124C6.08601 17.3707 5.74205 16.7788 5.47626 16.1509L6.70151 15.1142C7.00909 14.8543 7.25628 14.5304 7.42583 14.1651C7.59538 13.7998 7.68322 13.402 7.68322 12.9993C7.68322 12.5965 7.59538 12.1987 7.42583 11.8334C7.25628 11.4681 7.00909 11.1442 6.70151 10.8843L5.47463 9.84919C5.74113 9.22194 6.08563 8.63044 6.49838 8.08769L6.49676 8.08932Z" fill="white"/>
</svg>
