<svg width="78" height="78" viewBox="0 0 78 78" fill="none" xmlns="http://www.w3.org/2000/svg">
<path d="M30.1084 56.1605C30.1084 57.1302 30.3071 57.8933 30.7046 58.4497C31.102 59.0007 31.6584 59.2763 32.3737 59.2763C33.301 59.2763 33.9819 58.855 34.4164 58.0125V54.086C33.966 53.2647 33.2904 52.854 32.3896 52.854C31.6743 52.854 31.1152 53.1322 30.7125 53.6886C30.3098 54.245 30.1084 55.069 30.1084 56.1605Z" fill="#732ba3"/>
<path d="M41.6813 14.1671C40.7245 13.5278 39.5997 13.1866 38.4489 13.1866C36.9058 13.1866 35.426 13.7996 34.3348 14.8907C33.2437 15.9818 32.6307 17.4617 32.6307 19.0048C32.6307 20.1555 32.9719 21.2804 33.6113 22.2372C34.2506 23.194 35.1592 23.9398 36.2224 24.3801C37.2855 24.8205 38.4554 24.9357 39.584 24.7112C40.7126 24.4867 41.7493 23.9326 42.563 23.1189C43.3767 22.3052 43.9308 21.2685 44.1553 20.1399C44.3798 19.0113 44.2646 17.8414 43.8242 16.7783C43.3839 15.7151 42.6381 14.8064 41.6813 14.1671Z" fill="#5F2BA3"/>
<path d="M30.035 30.5648C28.8268 31.7577 28.1369 33.3783 28.1145 35.076C30.9501 37.6312 34.6318 39.0454 38.4489 39.0454C42.266 39.0454 45.9477 37.6312 48.7833 35.076C48.7609 33.3783 48.071 31.7577 46.8629 30.5648C45.6547 29.372 44.0255 28.7027 42.3277 28.7018H34.5701C32.8723 28.7027 31.2431 29.372 30.035 30.5648Z" fill="#732ba3"/>
<path fill-rule="evenodd" clip-rule="evenodd" d="M78 39C78 60.5391 60.5391 78 39 78C17.4609 78 0 60.5391 0 39C0 17.4609 17.4609 0 39 0C60.5391 0 78 17.4609 78 39ZM18.9966 55.2067C17.6878 54.8305 16.734 54.3695 16.1352 53.8237C15.5417 53.2726 15.245 52.5944 15.245 51.7889C15.245 50.8775 15.6079 50.1251 16.3339 49.5316C17.0651 48.9328 18.0137 48.6334 19.1794 48.6334C19.9743 48.6334 20.6817 48.7871 21.3016 49.0944C21.9269 49.4018 22.4091 49.8257 22.7482 50.3662C23.0927 50.9067 23.2649 51.4975 23.2649 52.1387H21.7308C21.7308 51.4392 21.5083 50.8908 21.0632 50.4933C20.6181 50.0906 19.9901 49.8893 19.1794 49.8893C18.427 49.8893 17.8388 50.0562 17.4149 50.39C16.9963 50.7185 16.787 51.1769 16.787 51.7651C16.787 52.2367 16.9857 52.6368 17.3831 52.9653C17.7858 53.2885 18.4667 53.5853 19.4258 53.8555C20.3902 54.1257 21.1427 54.4251 21.6832 54.7537C22.2289 55.0769 22.6317 55.4558 22.8913 55.8903C23.1562 56.3248 23.2887 56.8361 23.2887 57.4243C23.2887 58.3622 22.9231 59.1147 22.1918 59.6817C21.4606 60.2433 20.4829 60.5242 19.2589 60.5242C18.4641 60.5242 17.7222 60.3732 17.0334 60.0711C16.3445 59.7638 15.812 59.3452 15.4357 58.8153C15.0648 58.2854 14.8793 57.684 14.8793 57.011H16.4134C16.4134 57.7105 16.6704 58.2642 17.1844 58.6722C17.7037 59.0749 18.3952 59.2763 19.2589 59.2763C20.0643 59.2763 20.6817 59.112 21.1109 58.7835C21.5401 58.455 21.7547 58.0072 21.7547 57.4402C21.7547 56.8732 21.556 56.4361 21.1586 56.1287C20.7611 55.8161 20.0405 55.5088 18.9966 55.2067ZM26.6191 60.3652H25.1486V51.7651H26.6191V60.3652ZM25.0294 49.4839C25.0294 49.2454 25.101 49.0441 25.244 48.8798C25.3924 48.7156 25.6096 48.6334 25.8958 48.6334C26.1819 48.6334 26.3992 48.7156 26.5476 48.8798C26.6959 49.0441 26.7701 49.2454 26.7701 49.4839C26.7701 49.7224 26.6959 49.9211 26.5476 50.08C26.3992 50.239 26.1819 50.3185 25.8958 50.3185C25.6096 50.3185 25.3924 50.239 25.244 50.08C25.101 49.9211 25.0294 49.7224 25.0294 49.4839ZM28.63 55.9936C28.63 54.653 28.94 53.5879 29.56 52.7984C30.18 52.0035 31.0013 51.6061 32.024 51.6061C33.0732 51.6061 33.8918 51.977 34.48 52.7189L34.5516 51.7651H35.8948V60.1586C35.8948 61.2713 35.5637 62.1483 34.9013 62.7895C34.2442 63.4306 33.3593 63.7512 32.2465 63.7512C31.6266 63.7512 31.0198 63.6187 30.4264 63.3538C29.8329 63.0889 29.3798 62.7259 29.0672 62.2649L29.8302 61.3826C30.4608 62.1615 31.2318 62.551 32.1432 62.551C32.8586 62.551 33.4149 62.3497 33.8124 61.9469C34.2151 61.5442 34.4164 60.9772 34.4164 60.246V59.5068C33.8283 60.1851 33.0255 60.5242 32.0081 60.5242C31.0013 60.5242 30.1853 60.1188 29.56 59.3081C28.94 58.4973 28.63 57.3925 28.63 55.9936ZM39.5113 51.7651L39.559 52.8461C40.2161 52.0194 41.0745 51.6061 42.1343 51.6061C43.9518 51.6061 44.8685 52.6315 44.8844 54.6821V60.3652H43.414V54.6742C43.4087 54.0542 43.2656 53.5959 42.9848 53.2991C42.7092 53.0024 42.2774 52.854 41.6892 52.854C41.2123 52.854 40.7937 52.9812 40.4334 53.2355C40.073 53.4899 39.7922 53.8237 39.5908 54.237V60.3652H38.1204V51.7651H39.5113ZM53.0077 60.3652H51.4816V48.7924H53.0077V60.3652ZM56.966 51.7651L57.0137 52.8461C57.6707 52.0194 58.5291 51.6061 59.5889 51.6061C61.4065 51.6061 62.3232 52.6315 62.3391 54.6821V60.3652H60.8686V54.6742C60.8633 54.0542 60.7202 53.5959 60.4394 53.2991C60.1639 53.0024 59.732 52.854 59.1438 52.854C58.6669 52.854 58.2483 52.9812 57.888 53.2355C57.5276 53.4899 57.2468 53.8237 57.0454 54.237V60.3652H55.575V51.7651H56.966ZM56.1117 27.3548C55.4949 30.1935 54.2035 32.8419 52.3467 35.076L52.3751 35.0967C52.3269 35.1553 52.2746 35.2091 52.2223 35.2628C52.1766 35.3099 52.1309 35.3569 52.0881 35.407C52.012 35.4931 51.9332 35.5759 51.8545 35.6587C51.8115 35.7039 51.7686 35.7492 51.7261 35.7948C51.364 36.1879 50.9917 36.5641 50.6012 36.9197C50.517 36.9956 50.4309 37.069 50.3452 37.142C50.3097 37.1722 50.2743 37.2023 50.2392 37.2326C49.8255 37.5894 49.3988 37.9269 48.9592 38.2437C48.9281 38.2644 48.8991 38.2885 48.8703 38.3126C48.8452 38.3335 48.8201 38.3543 48.7937 38.373V38.3574C45.7655 40.4884 42.153 41.6321 38.4502 41.6321C34.7474 41.6321 31.1349 40.4884 28.1067 38.3574V38.373C28.0795 38.3538 28.0534 38.3322 28.0274 38.3107C27.9991 38.2873 27.9709 38.2639 27.9412 38.2437C27.5003 37.9282 27.075 37.5894 26.6612 37.2326C26.6249 37.2013 26.5883 37.1703 26.5517 37.1393C26.4671 37.0675 26.3822 36.9955 26.2992 36.9197C25.9087 36.5654 25.5364 36.1879 25.1744 35.7948C25.1322 35.7495 25.0895 35.7047 25.0467 35.6599C24.9673 35.5767 24.8879 35.4935 24.8123 35.407C24.7692 35.3573 24.7239 35.3106 24.6786 35.2641C24.6262 35.2101 24.5739 35.1563 24.5253 35.098L24.5512 35.076C21.837 31.8408 20.3488 27.753 20.3478 23.5301C20.3453 20.6251 21.0424 17.7623 22.3803 15.1838C23.7182 12.6052 25.6574 10.3868 28.034 8.71628C30.4105 7.04572 33.1544 5.97212 36.0337 5.58631C38.9129 5.2005 41.8427 5.51382 44.5752 6.49977C47.3077 7.48573 49.7626 9.1153 51.7321 11.2507C53.7016 13.386 55.1279 15.9643 55.8902 18.7674C56.6525 21.5706 56.7285 24.5161 56.1117 27.3548Z" fill="#732ba3"/>
</svg>
