<svg width="42" height="42" viewBox="0 0 42 42" fill="none" xmlns="http://www.w3.org/2000/svg">
<path d="M15.1166 30.2403C15.1166 30.7624 15.2236 31.1733 15.4376 31.4729C15.6516 31.7696 15.9512 31.918 16.3363 31.918C16.8357 31.918 17.2023 31.6912 17.4363 31.2375V29.1232C17.1937 28.681 16.83 28.4599 16.3449 28.4599C15.9597 28.4599 15.6587 28.6096 15.4418 28.9092C15.225 29.2088 15.1166 29.6525 15.1166 30.2403Z" fill="#6F9B10"/>
<path d="M35.2449 30.1504C35.2449 29.6283 35.1336 29.216 34.9111 28.9135C34.6885 28.6111 34.3832 28.4599 33.9952 28.4599C33.5158 28.4599 33.1563 28.6724 32.9166 29.0976V31.3103C33.1535 31.7325 33.5158 31.9437 34.0037 31.9437C34.3832 31.9437 34.6842 31.7939 34.9068 31.4943C35.1322 31.1918 35.2449 30.7439 35.2449 30.1504Z" fill="#6F9B10"/>
<path d="M22.4438 7.62846C21.9286 7.28421 21.3229 7.10047 20.7033 7.10047C19.8724 7.10047 19.0755 7.43054 18.488 8.01807C17.9005 8.6056 17.5704 9.40246 17.5704 10.2334C17.5704 10.853 17.7541 11.4587 18.0984 11.9739C18.4426 12.4891 18.9319 12.8906 19.5044 13.1278C20.0768 13.3649 20.7067 13.4269 21.3145 13.306C21.9222 13.1852 22.4804 12.8868 22.9185 12.4486C23.3567 12.0105 23.6551 11.4523 23.7759 10.8445C23.8968 10.2368 23.8348 9.60691 23.5977 9.03445C23.3605 8.46199 22.959 7.9727 22.4438 7.62846Z" fill="#6F9B10"/>
<path d="M16.1727 16.458C15.5221 17.1003 15.1506 17.9729 15.1386 18.8871C16.6654 20.263 18.6479 21.0244 20.7033 21.0244C22.7586 21.0244 24.7411 20.263 26.268 18.8871C26.2559 17.9729 25.8844 17.1003 25.2339 16.458C24.5833 15.8157 23.7061 15.4553 22.7919 15.4548H18.6147C17.7005 15.4553 16.8232 15.8157 16.1727 16.458Z" fill="#6F9B10"/>
<path fill-rule="evenodd" clip-rule="evenodd" d="M42 21C42 32.598 32.598 42 21 42C9.40202 42 0 32.598 0 21C0 9.40202 9.40202 0 21 0C32.598 0 42 9.40202 42 21ZM9.13329 29.7267C8.42853 29.5241 7.91495 29.2759 7.59253 28.982C7.27296 28.6853 7.11318 28.32 7.11318 27.8863C7.11318 27.3956 7.30863 26.9904 7.69952 26.6709C8.09327 26.3484 8.60401 26.1872 9.23173 26.1872C9.65971 26.1872 10.0406 26.27 10.3745 26.4355C10.7111 26.601 10.9708 26.8292 11.1534 27.1202C11.3389 27.4113 11.4316 27.7294 11.4316 28.0747H10.6056C10.6056 27.698 10.4857 27.4027 10.2461 27.1887C10.0064 26.9719 9.66827 26.8635 9.23173 26.8635C8.82656 26.8635 8.50985 26.9533 8.28159 27.1331C8.05618 27.31 7.94348 27.5568 7.94348 27.8735C7.94348 28.1274 8.05048 28.3429 8.26447 28.5198C8.48132 28.6938 8.84796 28.8536 9.3644 28.9991C9.8837 29.1446 10.2889 29.3058 10.5799 29.4827C10.8738 29.6568 11.0906 29.8608 11.2304 30.0948C11.3731 30.3287 11.4444 30.6041 11.4444 30.9208C11.4444 31.4258 11.2476 31.831 10.8538 32.1363C10.4601 32.4387 9.93363 32.5899 9.27452 32.5899C8.84654 32.5899 8.44708 32.5086 8.07615 32.346C7.70523 32.1805 7.41848 31.9551 7.2159 31.6698C7.01617 31.3844 6.9163 31.0606 6.9163 30.6982H7.74232C7.74232 31.0749 7.88071 31.373 8.15747 31.5927C8.43709 31.8096 8.80944 31.918 9.27452 31.918C9.70822 31.918 10.0406 31.8296 10.2717 31.6526C10.5029 31.4757 10.6184 31.2346 10.6184 30.9293C10.6184 30.624 10.5114 30.3887 10.2974 30.2232C10.0834 30.0548 9.69538 29.8893 9.13329 29.7267ZM13.2377 32.5043H12.4459V27.8735H13.2377V32.5043ZM12.3817 26.6452C12.3817 26.5168 12.4202 26.4084 12.4973 26.3199C12.5772 26.2315 12.6942 26.1872 12.8482 26.1872C13.0023 26.1872 13.1193 26.2315 13.1992 26.3199C13.2791 26.4084 13.319 26.5168 13.319 26.6452C13.319 26.7736 13.2791 26.8806 13.1992 26.9662C13.1193 27.0518 13.0023 27.0946 12.8482 27.0946C12.6942 27.0946 12.5772 27.0518 12.4973 26.9662C12.4202 26.8806 12.3817 26.7736 12.3817 26.6452ZM14.3205 30.1504C14.3205 29.4285 14.4874 28.855 14.8213 28.4299C15.1551 28.0019 15.5974 27.7879 16.148 27.7879C16.713 27.7879 17.1538 27.9876 17.4705 28.3871L17.509 27.8735H18.2323V32.3931C18.2323 32.9923 18.054 33.4645 17.6974 33.8097C17.3435 34.155 16.8671 34.3276 16.2679 34.3276C15.934 34.3276 15.6073 34.2562 15.2878 34.1136C14.9682 33.9709 14.7243 33.7755 14.5559 33.5272L14.9668 33.0522C15.3063 33.4716 15.7215 33.6813 16.2122 33.6813C16.5974 33.6813 16.897 33.5729 17.111 33.356C17.3279 33.1392 17.4363 32.8339 17.4363 32.4401V32.0421C17.1196 32.4073 16.6873 32.5899 16.1395 32.5899C15.5974 32.5899 15.1579 32.3717 14.8213 31.9351C14.4874 31.4986 14.3205 30.9037 14.3205 30.1504ZM20.1797 27.8735L20.2054 28.4556C20.5592 28.0105 21.0214 27.7879 21.5921 27.7879C22.5707 27.7879 23.0643 28.34 23.0729 29.4442V32.5043H22.2811V29.4399C22.2783 29.1061 22.2012 28.8593 22.05 28.6995C21.9016 28.5397 21.6691 28.4599 21.3524 28.4599C21.0956 28.4599 20.8702 28.5283 20.6762 28.6653C20.4821 28.8022 20.3309 28.982 20.2225 29.2046V32.5043H19.4307V27.8735H20.1797ZM30.9522 26.2728V30.5099C30.9493 31.0977 30.7639 31.5785 30.3958 31.9522C30.0306 32.326 29.5341 32.5357 28.9064 32.5814L28.6881 32.5899C28.0062 32.5899 27.4626 32.4059 27.0575 32.0378C26.6523 31.6698 26.4469 31.1633 26.4412 30.5185V26.2728H27.2543V30.4928C27.2543 30.9436 27.3785 31.2946 27.6267 31.5457C27.8749 31.7939 28.2287 31.918 28.6881 31.918C29.1532 31.918 29.5084 31.7939 29.7538 31.5457C30.002 31.2974 30.1262 30.9479 30.1262 30.4971V26.2728H30.9522ZM36.0367 30.2403C36.0367 30.945 35.8755 31.5128 35.5531 31.9437C35.2306 32.3745 34.7941 32.5899 34.2434 32.5899C33.6813 32.5899 33.2391 32.4116 32.9166 32.055V34.2848H32.1249V27.8735H32.8482L32.8867 28.3871C33.2091 27.9876 33.6571 27.7879 34.2306 27.7879C34.787 27.7879 35.2264 27.9976 35.5488 28.4171C35.874 28.8365 36.0367 29.42 36.0367 30.1675V30.2403ZM30.214 14.7295C29.8819 16.258 29.1865 17.6841 28.1867 18.8871L28.202 18.8982C28.176 18.9298 28.1478 18.9587 28.1197 18.9877C28.0951 19.013 28.0705 19.0383 28.0474 19.0653C28.0065 19.1117 27.964 19.1563 27.9217 19.2008C27.8985 19.2252 27.8754 19.2495 27.8525 19.2741C27.6576 19.4858 27.4571 19.6884 27.2468 19.8798C27.2015 19.9207 27.1551 19.9602 27.1089 19.9996C27.0899 20.0158 27.0708 20.032 27.0519 20.0483C26.8291 20.2405 26.5993 20.4222 26.3626 20.5927C26.3459 20.6039 26.3303 20.6169 26.3148 20.6298C26.3013 20.6411 26.2878 20.6523 26.2735 20.6624V20.654C24.643 21.8015 22.6978 22.4173 20.704 22.4173C18.7101 22.4173 16.765 21.8015 15.1344 20.654V20.6624C15.1197 20.652 15.1057 20.6404 15.0917 20.6288C15.0765 20.6162 15.0612 20.6036 15.0453 20.5927C14.8079 20.4229 14.5788 20.2405 14.356 20.0483C14.3365 20.0315 14.3168 20.0148 14.2971 19.9981C14.2515 19.9594 14.2058 19.9207 14.1611 19.8798C13.9509 19.6891 13.7504 19.4858 13.5554 19.2741C13.5327 19.2498 13.5097 19.2256 13.4867 19.2015C13.444 19.1567 13.4012 19.1119 13.3605 19.0653C13.3373 19.0385 13.3129 19.0134 13.2885 18.9883C13.2603 18.9593 13.2321 18.9303 13.2059 18.8989L13.2199 18.8871C11.7584 17.145 10.9571 14.9439 10.9565 12.67C10.9552 11.1058 11.3305 9.56431 12.0509 8.17587C12.7713 6.78742 13.8155 5.59291 15.0952 4.69338C16.3749 3.79385 17.8524 3.21576 19.4027 3.00801C20.9531 2.80027 22.5307 2.96898 24.002 3.49988C25.4734 4.03078 26.7952 4.90824 27.8557 6.05804C28.9162 7.20785 29.6842 8.59616 30.0947 10.1055C30.5052 11.6149 30.5461 13.201 30.214 14.7295Z" fill="#6F9B10"/>
</svg>
