<svg width="42" height="42" viewBox="0 0 42 42" fill="none" xmlns="http://www.w3.org/2000/svg">
<path d="M16.2122 30.2403C16.2122 30.7624 16.3192 31.1733 16.5332 31.4729C16.7472 31.7696 17.0468 31.918 17.432 31.918C17.9313 31.918 18.298 31.6912 18.5319 31.2375V29.1232C18.2894 28.681 17.9256 28.4599 17.4406 28.4599C17.0554 28.4599 16.7543 28.6096 16.5375 28.9092C16.3207 29.2088 16.2122 29.6525 16.2122 30.2403Z" fill="#6F9B10"/>
<path d="M22.4438 7.62846C21.9286 7.28421 21.3229 7.10047 20.7033 7.10047C19.8724 7.10047 19.0755 7.43054 18.488 8.01807C17.9005 8.6056 17.5704 9.40246 17.5704 10.2334C17.5704 10.853 17.7541 11.4587 18.0984 11.9739C18.4426 12.4891 18.9319 12.8906 19.5044 13.1278C20.0768 13.3649 20.7067 13.4269 21.3145 13.306C21.9222 13.1852 22.4804 12.8868 22.9185 12.4486C23.3567 12.0105 23.6551 11.4523 23.7759 10.8445C23.8968 10.2368 23.8348 9.60691 23.5977 9.03445C23.3605 8.46199 22.959 7.9727 22.4438 7.62846Z" fill="#6F9B10"/>
<path d="M16.1727 16.458C15.5221 17.1003 15.1506 17.9729 15.1386 18.8871C16.6654 20.263 18.6479 21.0244 20.7033 21.0244C22.7586 21.0244 24.7411 20.263 26.268 18.8871C26.2559 17.9729 25.8844 17.1003 25.2339 16.458C24.5833 15.8157 23.7061 15.4553 22.7919 15.4548H18.6147C17.7005 15.4553 16.8232 15.8157 16.1727 16.458Z" fill="#6F9B10"/>
<path fill-rule="evenodd" clip-rule="evenodd" d="M42 21C42 32.598 32.598 42 21 42C9.40202 42 0 32.598 0 21C0 9.40202 9.40202 0 21 0C32.598 0 42 9.40202 42 21ZM10.2289 29.7267C9.52418 29.5241 9.0106 29.2759 8.68818 28.982C8.36861 28.6853 8.20883 28.32 8.20883 27.8863C8.20883 27.3956 8.40428 26.9904 8.79518 26.6709C9.18893 26.3484 9.69966 26.1872 10.3274 26.1872C10.7554 26.1872 11.1363 26.27 11.4701 26.4355C11.8068 26.601 12.0664 26.8292 12.249 27.1202C12.4345 27.4113 12.5272 27.7294 12.5272 28.0747H11.7012C11.7012 27.698 11.5814 27.4027 11.3417 27.1887C11.102 26.9719 10.7639 26.8635 10.3274 26.8635C9.92221 26.8635 9.6055 26.9533 9.37724 27.1331C9.15183 27.31 9.03913 27.5568 9.03913 27.8735C9.03913 28.1274 9.14613 28.3429 9.36012 28.5198C9.57697 28.6938 9.94361 28.8536 10.4601 28.9991C10.9793 29.1446 11.3845 29.3058 11.6755 29.4827C11.9694 29.6568 12.1863 29.8608 12.3261 30.0948C12.4688 30.3287 12.5401 30.6041 12.5401 30.9208C12.5401 31.4258 12.3432 31.831 11.9495 32.1363C11.5557 32.4387 11.0293 32.5899 10.3702 32.5899C9.94219 32.5899 9.54273 32.5086 9.17181 32.346C8.80088 32.1805 8.51413 31.9551 8.31155 31.6698C8.11182 31.3844 8.01196 31.0606 8.01196 30.6982H8.83798C8.83798 31.0749 8.97636 31.373 9.25313 31.5927C9.53274 31.8096 9.9051 31.918 10.3702 31.918C10.8039 31.918 11.1363 31.8296 11.3674 31.6526C11.5985 31.4757 11.7141 31.2346 11.7141 30.9293C11.7141 30.624 11.6071 30.3887 11.3931 30.2232C11.1791 30.0548 10.791 29.8893 10.2289 29.7267ZM14.3334 32.5043H13.5416V27.8735H14.3334V32.5043ZM13.4774 26.6452C13.4774 26.5168 13.5159 26.4084 13.5929 26.3199C13.6728 26.2315 13.7898 26.1872 13.9439 26.1872C14.098 26.1872 14.2149 26.2315 14.2948 26.3199C14.3747 26.4084 14.4147 26.5168 14.4147 26.6452C14.4147 26.7736 14.3747 26.8806 14.2948 26.9662C14.2149 27.0518 14.098 27.0946 13.9439 27.0946C13.7898 27.0946 13.6728 27.0518 13.5929 26.9662C13.5159 26.8806 13.4774 26.7736 13.4774 26.6452ZM15.4162 30.1504C15.4162 29.4285 15.5831 28.855 15.9169 28.4299C16.2507 28.0019 16.693 27.7879 17.2437 27.7879C17.8086 27.7879 18.2495 27.9876 18.5662 28.3871L18.6047 27.8735H19.328V32.3931C19.328 32.9923 19.1497 33.4645 18.793 33.8097C18.4392 34.155 17.9627 34.3276 17.3635 34.3276C17.0297 34.3276 16.703 34.2562 16.3834 34.1136C16.0639 33.9709 15.8199 33.7755 15.6516 33.5272L16.0624 33.0522C16.402 33.4716 16.8171 33.6813 17.3079 33.6813C17.6931 33.6813 17.9927 33.5729 18.2067 33.356C18.4235 33.1392 18.5319 32.8339 18.5319 32.4401V32.0421C18.2152 32.4073 17.7829 32.5899 17.2351 32.5899C16.693 32.5899 16.2536 32.3717 15.9169 31.9351C15.5831 31.4986 15.4162 30.9037 15.4162 30.1504ZM21.2753 27.8735L21.301 28.4556C21.6548 28.0105 22.1171 27.7879 22.6877 27.7879C23.6664 27.7879 24.16 28.34 24.1685 29.4442V32.5043H23.3768V29.4399C23.3739 29.1061 23.2969 28.8593 23.1457 28.6995C22.9973 28.5397 22.7647 28.4599 22.448 28.4599C22.1912 28.4599 21.9658 28.5283 21.7718 28.6653C21.5778 28.8022 21.4266 28.982 21.3181 29.2046V32.5043H20.5264V27.8735H21.2753ZM28.5426 32.5043H27.7209V26.2728H28.5426V32.5043ZM30.674 27.8735L30.6997 28.4556C31.0535 28.0105 31.5157 27.7879 32.0863 27.7879C33.065 27.7879 33.5586 28.34 33.5672 29.4442V32.5043H32.7754V29.4399C32.7726 29.1061 32.6955 28.8593 32.5443 28.6995C32.3959 28.5397 32.1634 28.4599 31.8467 28.4599C31.5899 28.4599 31.3645 28.5283 31.1704 28.6653C30.9764 28.8022 30.8252 28.982 30.7168 29.2046V32.5043H29.925V27.8735H30.674ZM30.214 14.7295C29.8819 16.258 29.1865 17.6841 28.1867 18.8871L28.202 18.8982C28.176 18.9298 28.1478 18.9587 28.1197 18.9877C28.0951 19.013 28.0705 19.0383 28.0474 19.0653C28.0065 19.1117 27.964 19.1563 27.9217 19.2008C27.8985 19.2252 27.8754 19.2495 27.8525 19.2741C27.6576 19.4858 27.4571 19.6884 27.2468 19.8798C27.2015 19.9207 27.1551 19.9602 27.1089 19.9996C27.0899 20.0158 27.0708 20.032 27.0519 20.0483C26.8291 20.2405 26.5993 20.4222 26.3626 20.5927C26.3459 20.6039 26.3303 20.6169 26.3148 20.6298C26.3013 20.6411 26.2878 20.6523 26.2735 20.6624V20.654C24.643 21.8015 22.6978 22.4173 20.704 22.4173C18.7101 22.4173 16.765 21.8015 15.1344 20.654V20.6624C15.1197 20.652 15.1057 20.6404 15.0917 20.6288C15.0765 20.6162 15.0612 20.6036 15.0453 20.5927C14.8079 20.4229 14.5788 20.2405 14.356 20.0483C14.3365 20.0315 14.3168 20.0148 14.2971 19.9981C14.2515 19.9594 14.2058 19.9207 14.1611 19.8798C13.9509 19.6891 13.7504 19.4858 13.5554 19.2741C13.5327 19.2498 13.5097 19.2256 13.4867 19.2015C13.444 19.1567 13.4012 19.1119 13.3605 19.0653C13.3373 19.0385 13.3129 19.0134 13.2885 18.9883C13.2603 18.9593 13.2321 18.9303 13.2059 18.8989L13.2199 18.8871C11.7584 17.145 10.9571 14.9439 10.9565 12.67C10.9552 11.1058 11.3305 9.56431 12.0509 8.17587C12.7713 6.78742 13.8155 5.59291 15.0952 4.69338C16.3749 3.79385 17.8524 3.21576 19.4027 3.00801C20.9531 2.80027 22.5307 2.96898 24.002 3.49988C25.4734 4.03078 26.7952 4.90824 27.8557 6.05804C28.9162 7.20785 29.6842 8.59616 30.0947 10.1055C30.5052 11.6149 30.5461 13.201 30.214 14.7295Z" fill="#6F9B10"/>
</svg>
