<svg width="78" height="78" viewBox="0 0 78 78" fill="none" xmlns="http://www.w3.org/2000/svg">
<path d="M28.0736 56.1605C28.0736 57.1302 28.2724 57.8933 28.6698 58.4497C29.0672 59.0007 29.6236 59.2763 30.3389 59.2763C31.2662 59.2763 31.9471 58.855 32.3817 58.0125V54.086C31.9312 53.2647 31.2556 52.854 30.3548 52.854C29.6395 52.854 29.0804 53.1322 28.6777 53.6886C28.275 54.245 28.0736 55.069 28.0736 56.1605Z" fill="#732ba3"/>
<path d="M65.4548 55.9936C65.4548 55.0239 65.2482 54.2582 64.8348 53.6965C64.4215 53.1348 63.8545 52.854 63.1339 52.854C62.2437 52.854 61.576 53.2488 61.1309 54.0383V58.1476C61.5707 58.9319 62.2437 59.324 63.1498 59.324C63.8545 59.324 64.4136 59.0458 64.8269 58.4894C65.2455 57.9277 65.4548 57.0958 65.4548 55.9936Z" fill="#732ba3"/>
<path d="M41.6813 14.1671C40.7245 13.5278 39.5997 13.1866 38.4489 13.1866C36.9058 13.1866 35.426 13.7996 34.3348 14.8907C33.2437 15.9818 32.6307 17.4617 32.6307 19.0048C32.6307 20.1555 32.9719 21.2804 33.6113 22.2372C34.2506 23.194 35.1592 23.9398 36.2224 24.3801C37.2855 24.8205 38.4554 24.9357 39.584 24.7112C40.7126 24.4867 41.7493 23.9326 42.563 23.1189C43.3767 22.3052 43.9308 21.2685 44.1553 20.1399C44.3798 19.0113 44.2646 17.8414 43.8242 16.7783C43.3839 15.7151 42.6381 14.8064 41.6813 14.1671Z" fill="#732ba3"/>
<path d="M30.035 30.5648C28.8268 31.7577 28.1369 33.3783 28.1145 35.076C30.9501 37.6312 34.6318 39.0454 38.4489 39.0454C42.266 39.0454 45.9477 37.6312 48.7833 35.076C48.7609 33.3783 48.071 31.7577 46.8629 30.5648C45.6547 29.372 44.0255 28.7027 42.3277 28.7018H34.5701C32.8723 28.7027 31.2431 29.372 30.035 30.5648Z" fill="#732ba3"/>
<path fill-rule="evenodd" clip-rule="evenodd" d="M78 39C78 60.5391 60.5391 78 39 78C17.4609 78 0 60.5391 0 39C0 17.4609 17.4609 0 39 0C60.5391 0 78 17.4609 78 39ZM16.9618 55.2067C15.653 54.8305 14.6992 54.3695 14.1004 53.8237C13.5069 53.2726 13.2102 52.5944 13.2102 51.7889C13.2102 50.8775 13.5732 50.1251 14.2991 49.5316C15.0304 48.9328 15.9789 48.6334 17.1446 48.6334C17.9395 48.6334 18.6469 48.7871 19.2668 49.0944C19.8921 49.4018 20.3743 49.8257 20.7135 50.3662C21.0579 50.9067 21.2301 51.4975 21.2301 52.1387H19.6961C19.6961 51.4392 19.4735 50.8908 19.0284 50.4933C18.5833 50.0906 17.9554 49.8893 17.1446 49.8893C16.3922 49.8893 15.804 50.0562 15.3801 50.39C14.9615 50.7185 14.7522 51.1769 14.7522 51.7651C14.7522 52.2367 14.9509 52.6368 15.3483 52.9653C15.751 53.2885 16.4319 53.5853 17.391 53.8555C18.3554 54.1257 19.1079 54.4251 19.6484 54.7537C20.1942 55.0769 20.5969 55.4558 20.8565 55.8903C21.1215 56.3248 21.2539 56.8361 21.2539 57.4243C21.2539 58.3622 20.8883 59.1147 20.1571 59.6817C19.4258 60.2433 18.4482 60.5242 17.2241 60.5242C16.4293 60.5242 15.6874 60.3732 14.9986 60.0711C14.3097 59.7638 13.7772 59.3452 13.401 58.8153C13.03 58.2854 12.8446 57.684 12.8446 57.011H14.3786C14.3786 57.7105 14.6356 58.2642 15.1496 58.6722C15.6689 59.0749 16.3604 59.2763 17.2241 59.2763C18.0296 59.2763 18.6469 59.112 19.0761 58.7835C19.5053 58.455 19.7199 58.0072 19.7199 57.4402C19.7199 56.8732 19.5212 56.4361 19.1238 56.1287C18.7264 55.8161 18.0057 55.5088 16.9618 55.2067ZM24.5843 60.3652H23.1139V51.7651H24.5843V60.3652ZM22.9946 49.4839C22.9946 49.2454 23.0662 49.0441 23.2092 48.8798C23.3576 48.7156 23.5749 48.6334 23.861 48.6334C24.1471 48.6334 24.3644 48.7156 24.5128 48.8798C24.6611 49.0441 24.7353 49.2454 24.7353 49.4839C24.7353 49.7224 24.6611 49.9211 24.5128 50.08C24.3644 50.239 24.1471 50.3185 23.861 50.3185C23.5749 50.3185 23.3576 50.239 23.2092 50.08C23.0662 49.9211 22.9946 49.7224 22.9946 49.4839ZM26.5952 55.9936C26.5952 54.653 26.9052 53.5879 27.5252 52.7984C28.1452 52.0035 28.9665 51.6061 29.9892 51.6061C31.0384 51.6061 31.8571 51.977 32.4452 52.7189L32.5168 51.7651H33.8601V60.1586C33.8601 61.2713 33.5289 62.1483 32.8665 62.7895C32.2094 63.4306 31.3245 63.7512 30.2118 63.7512C29.5918 63.7512 28.9851 63.6187 28.3916 63.3538C27.7981 63.0889 27.345 62.7259 27.0324 62.2649L27.7954 61.3826C28.426 62.1615 29.197 62.551 30.1084 62.551C30.8238 62.551 31.3802 62.3497 31.7776 61.9469C32.1803 61.5442 32.3817 60.9772 32.3817 60.246V59.5068C31.7935 60.1851 30.9907 60.5242 29.9733 60.5242C28.9665 60.5242 28.1505 60.1188 27.5252 59.3081C26.9052 58.4973 26.5952 57.3925 26.5952 55.9936ZM37.4766 51.7651L37.5243 52.8461C38.1813 52.0194 39.0397 51.6061 40.0995 51.6061C41.917 51.6061 42.8338 52.6315 42.8497 54.6821V60.3652H41.3792V54.6742C41.3739 54.0542 41.2308 53.5959 40.95 53.2991C40.6745 53.0024 40.2426 52.854 39.6544 52.854C39.1775 52.854 38.7589 52.9812 38.3986 53.2355C38.0382 53.4899 37.7574 53.8237 37.556 54.237V60.3652H36.0856V51.7651H37.4766ZM57.4826 48.7924V56.6613C57.4773 57.7529 57.1329 58.6457 56.4493 59.3399C55.7711 60.034 54.849 60.4235 53.6833 60.5083L53.2779 60.5242C52.0115 60.5242 51.002 60.1824 50.2496 59.4988C49.4971 58.8153 49.1156 57.8747 49.105 56.6772V48.7924H50.6152V56.6295C50.6152 57.4667 50.8457 58.1185 51.3067 58.5848C51.7677 59.0458 52.4248 59.2763 53.2779 59.2763C54.1416 59.2763 54.8014 59.0458 55.2571 58.5848C55.7181 58.1238 55.9486 57.4747 55.9486 56.6374V48.7924H57.4826ZM66.9253 56.1605C66.9253 57.4694 66.6259 58.5238 66.0271 59.324C65.4283 60.1241 64.6176 60.5242 63.5949 60.5242C62.551 60.5242 61.7297 60.193 61.1309 59.5306V63.6717H59.6605V51.7651H61.0037L61.0753 52.7189C61.674 51.977 62.506 51.6061 63.5711 51.6061C64.6043 51.6061 65.4204 51.9956 66.0192 52.7745C66.6232 53.5535 66.9253 54.6371 66.9253 56.0254V56.1605ZM56.1117 27.3548C55.4949 30.1935 54.2035 32.8419 52.3467 35.076L52.3751 35.0967C52.3269 35.1553 52.2746 35.2091 52.2223 35.2628C52.1766 35.3099 52.1309 35.3569 52.0881 35.407C52.012 35.4931 51.9332 35.5759 51.8545 35.6587C51.8115 35.7039 51.7686 35.7492 51.7261 35.7948C51.364 36.1879 50.9917 36.5641 50.6012 36.9197C50.517 36.9956 50.4309 37.069 50.3452 37.142C50.3097 37.1722 50.2743 37.2023 50.2392 37.2326C49.8255 37.5894 49.3988 37.9269 48.9592 38.2437C48.9281 38.2644 48.8991 38.2885 48.8703 38.3126C48.8452 38.3335 48.8201 38.3543 48.7937 38.373V38.3574C45.7655 40.4884 42.153 41.6321 38.4502 41.6321C34.7474 41.6321 31.1349 40.4884 28.1067 38.3574V38.373C28.0795 38.3538 28.0534 38.3322 28.0274 38.3107C27.9991 38.2873 27.9709 38.2639 27.9412 38.2437C27.5003 37.9282 27.075 37.5894 26.6612 37.2326C26.6249 37.2013 26.5883 37.1703 26.5517 37.1393C26.4671 37.0675 26.3822 36.9955 26.2992 36.9197C25.9087 36.5654 25.5364 36.1879 25.1744 35.7948C25.1322 35.7495 25.0895 35.7047 25.0467 35.6599C24.9673 35.5767 24.8879 35.4935 24.8123 35.407C24.7692 35.3573 24.7239 35.3106 24.6786 35.2641C24.6262 35.2101 24.5739 35.1563 24.5253 35.098L24.5512 35.076C21.837 31.8408 20.3488 27.753 20.3478 23.5301C20.3453 20.6251 21.0424 17.7623 22.3803 15.1838C23.7182 12.6052 25.6574 10.3868 28.034 8.71628C30.4105 7.04572 33.1544 5.97212 36.0337 5.58631C38.9129 5.2005 41.8427 5.51382 44.5752 6.49977C47.3077 7.48573 49.7626 9.1153 51.7321 11.2507C53.7016 13.386 55.1279 15.9643 55.8902 18.7674C56.6525 21.5706 56.7285 24.5161 56.1117 27.3548Z" fill="#732ba3"/>
</svg>
