<svg width="32" height="32" viewBox="0 0 32 32" fill="none" xmlns="http://www.w3.org/2000/svg">
<rect width="32" height="32" rx="4" fill="#b42f17"/>
<path d="M14 14C14.5523 14 15 14.4477 15 15V21C15 21.5523 14.5523 22 14 22C13.4477 22 13 21.5523 13 21V15C13 14.4477 13.4477 14 14 14Z" fill="white"/>
<path d="M19 15C19 14.4477 18.5523 14 18 14C17.4477 14 17 14.4477 17 15V21C17 21.5523 17.4477 22 18 22C18.5523 22 19 21.5523 19 21V15Z" fill="white"/>
<path fill-rule="evenodd" clip-rule="evenodd" d="M14 6C13.4696 6 12.9609 6.21071 12.5858 6.58579C12.2107 6.96086 12 7.46957 12 8V10H8C7.44772 10 7 10.4477 7 11C7 11.5523 7.44772 12 8 12H8.07987L9.00035 23.0458C9.01222 23.8249 9.32687 24.5695 9.87868 25.1213C10.4413 25.6839 11.2043 26 12 26H20C20.7957 26 21.5587 25.6839 22.1213 25.1213C22.6731 24.5695 22.9878 23.8249 22.9997 23.0458L23.9201 12H24C24.5523 12 25 11.5523 25 11C25 10.4477 24.5523 10 24 10H20V8C20 7.46957 19.7893 6.96086 19.4142 6.58579C19.0391 6.21071 18.5304 6 18 6H14ZM18 10V8H14V10H18ZM10.0868 12L10.9965 22.917C10.9988 22.9446 11 22.9723 11 23C11 23.2652 11.1054 23.5196 11.2929 23.7071C11.4804 23.8946 11.7348 24 12 24H20C20.2652 24 20.5196 23.8946 20.7071 23.7071C20.8946 23.5196 21 23.2652 21 23C21 22.9723 21.0012 22.9446 21.0035 22.917L21.9132 12H10.0868Z" fill="white"/>
</svg>
