<svg width="32" height="32" viewBox="0 0 32 32" fill="none" xmlns="http://www.w3.org/2000/svg">
<rect width="32" height="32" rx="4" fill="#B44F17"/>
<path fill-rule="evenodd" clip-rule="evenodd" d="M16 29C23.1797 29 29 23.1797 29 16C29 8.8203 23.1797 3 16 3C8.8203 3 3 8.8203 3 16C3 23.1797 8.8203 29 16 29ZM12.5858 6.58579C12.9609 6.21071 13.4696 6 14 6H18C18.5304 6 19.0391 6.21071 19.4142 6.58579C19.7893 6.96086 20 7.46957 20 8V10H24C24.5523 10 25 10.4477 25 11C25 11.5523 24.5523 12 24 12H23.9201L22.9997 23.0458C22.9878 23.8249 22.6731 24.5695 22.1213 25.1213C21.5587 25.6839 20.7957 26 20 26H12C11.2043 26 10.4413 25.6839 9.87868 25.1213C9.32687 24.5695 9.01223 23.8249 9.00035 23.0458L8.07987 12H8C7.44772 12 7 11.5523 7 11C7 10.4477 7.44772 10 8 10H12V8C12 7.46957 12.2107 6.96086 12.5858 6.58579ZM18 8V10H14V8H18ZM10.9965 22.917L10.0868 12H21.9132L21.0035 22.917C21.0012 22.9446 21 22.9723 21 23C21 23.2652 20.8946 23.5196 20.7071 23.7071C20.5196 23.8946 20.2652 24 20 24H12C11.7348 24 11.4804 23.8946 11.2929 23.7071C11.1054 23.5196 11 23.2652 11 23C11 22.9723 10.9988 22.9446 10.9965 22.917ZM14 14C14.5523 14 15 14.4477 15 15V21C15 21.5523 14.5523 22 14 22C13.4477 22 13 21.5523 13 21V15C13 14.4477 13.4477 14 14 14ZM19 15C19 14.4477 18.5523 14 18 14C17.4477 14 17 14.4477 17 15V21C17 21.5523 17.4477 22 18 22C18.5523 22 19 21.5523 19 21V15Z" fill="white"/>
</svg>
