<svg width="18" height="20" viewBox="0 0 18 20" fill="none" xmlns="http://www.w3.org/2000/svg">
<path d="M7 8C7.55228 8 8 8.44771 8 9V15C8 15.5523 7.55228 16 7 16C6.44772 16 6 15.5523 6 15V9C6 8.44771 6.44772 8 7 8Z" fill="#D76331"/>
<path d="M12 9C12 8.44771 11.5523 8 11 8C10.4477 8 10 8.44771 10 9V15C10 15.5523 10.4477 16 11 16C11.5523 16 12 15.5523 12 15V9Z" fill="#D76331"/>
<path fill-rule="evenodd" clip-rule="evenodd" d="M7 0C6.46957 0 5.96086 0.210714 5.58579 0.585786C5.21071 0.960859 5 1.46957 5 2V4H1C0.447715 4 0 4.44772 0 5C0 5.55228 0.447715 6 1 6H1.07987L2.00035 17.0458C2.01222 17.8249 2.32687 18.5695 2.87868 19.1213C3.44129 19.6839 4.20435 20 5 20H13C13.7957 20 14.5587 19.6839 15.1213 19.1213C15.6731 18.5695 15.9878 17.8249 15.9997 17.0458L16.9201 6H17C17.5523 6 18 5.55228 18 5C18 4.44772 17.5523 4 17 4H13V2C13 1.46957 12.7893 0.960859 12.4142 0.585786C12.0391 0.210714 11.5304 0 11 0H7ZM11 4V2H7V4H11ZM3.0868 6L3.99655 16.917C3.99885 16.9446 4 16.9723 4 17C4 17.2652 4.10536 17.5196 4.29289 17.7071C4.48043 17.8946 4.73478 18 5 18H13C13.2652 18 13.5196 17.8946 13.7071 17.7071C13.8946 17.5196 14 17.2652 14 17C14 16.9723 14.0012 16.9446 14.0035 16.917L14.9132 6H3.0868Z" fill="#D76331"/>
</svg>
