<svg width="24" height="24" viewBox="0 0 24 24" fill="none" xmlns="http://www.w3.org/2000/svg">
<path d="M4.97872 0C5.68377 0 6.25532 0.596954 6.25532 1.33333V2.66667H22.7234C23.4284 2.66667 24 3.26362 24 4C24 4.73638 23.4284 5.33333 22.7234 5.33333H6.25532V6.66667C6.25532 7.40305 5.68377 8 4.97872 8C4.27368 8 3.70213 7.40305 3.70213 6.66667V5.33333H1.2766C0.571551 5.33333 0 4.73638 0 4C0 3.26362 0.571551 2.66667 1.2766 2.66667H3.70213V1.33333C3.70213 0.596954 4.27368 0 4.97872 0Z" fill="white"/>
<path d="M1.2766 10.6667C0.571551 10.6667 0 11.2636 0 12C0 12.7364 0.571551 13.3333 1.2766 13.3333H17.7447V14.6667C17.7447 15.403 18.3162 16 19.0213 16C19.7263 16 20.2979 15.403 20.2979 14.6667V13.3333H22.7234C23.4284 13.3333 24 12.7364 24 12C24 11.2636 23.4284 10.6667 22.7234 10.6667H20.2979V9.33333C20.2979 8.59695 19.7263 8 19.0213 8C18.3162 8 17.7447 8.59695 17.7447 9.33333V10.6667H1.2766Z" fill="white"/>
<path d="M8.80851 16C9.51356 16 10.0851 16.597 10.0851 17.3333V18.6667H22.7234C23.4284 18.6667 24 19.2636 24 20C24 20.7364 23.4284 21.3333 22.7234 21.3333H10.0851V22.6667C10.0851 23.403 9.51356 24 8.80851 24C8.10347 24 7.53191 23.403 7.53191 22.6667V21.3333H1.2766C0.571551 21.3333 0 20.7364 0 20C0 19.2636 0.571551 18.6667 1.2766 18.6667H7.53191V17.3333C7.53191 16.597 8.10347 16 8.80851 16Z" fill="white"/>
</svg>
