<svg width="32" height="32" viewBox="0 0 32 32" fill="none" xmlns="http://www.w3.org/2000/svg">
<rect width="32" height="32" rx="4" fill="#577A0C"/>
<path d="M23.625 13.2H12.9375V9.75C12.9375 7.8479 14.5359 6.3 16.5 6.3C18.4641 6.3 20.0625 7.8479 20.0625 9.75H22.4375C22.4375 6.57945 19.7739 4 16.5 4C13.2261 4 10.5625 6.57945 10.5625 9.75V13.2H9.375C8.74511 13.2 8.14102 13.4423 7.69562 13.8737C7.25022 14.305 7 14.89 7 15.5V24.7C7 25.31 7.25022 25.895 7.69562 26.3263C8.14102 26.7577 8.74511 27 9.375 27H23.625C24.2549 27 24.859 26.7577 25.3044 26.3263C25.7498 25.895 26 25.31 26 24.7V15.5C26 14.89 25.7498 14.305 25.3044 13.8737C24.859 13.4423 24.2549 13.2 23.625 13.2ZM14.1974 19.5238C14.3434 18.9827 14.6878 18.5115 15.1663 18.1983C15.6448 17.8851 16.2247 17.7513 16.7976 17.8218C17.3705 17.8924 17.8973 18.1625 18.2796 18.5818C18.6619 19.001 18.8736 19.5407 18.875 20.1C18.8743 20.5022 18.7642 20.8971 18.5557 21.245C18.3472 21.5929 18.0478 21.8814 17.6875 22.0814V24.7H15.3125V22.0814C14.8632 21.8321 14.5108 21.4469 14.3093 20.9849C14.1079 20.5228 14.0686 20.0096 14.1974 19.5238V19.5238Z" fill="white"/>
</svg>
