<svg width="32" height="26" viewBox="0 0 32 26" fill="none" xmlns="http://www.w3.org/2000/svg">
<path d="M31.2 10.5625H28V7.3125C28 6.86562 27.64 6.5 27.2 6.5H25.6C25.16 6.5 24.8 6.86562 24.8 7.3125V10.5625H21.6C21.16 10.5625 20.8 10.9281 20.8 11.375V13C20.8 13.4469 21.16 13.8125 21.6 13.8125H24.8V17.0625C24.8 17.5094 25.16 17.875 25.6 17.875H27.2C27.64 17.875 28 17.5094 28 17.0625V13.8125H31.2C31.64 13.8125 32 13.4469 32 13V11.375C32 10.9281 31.64 10.5625 31.2 10.5625ZM11.2 13C14.735 13 17.6 10.0902 17.6 6.5C17.6 2.90977 14.735 0 11.2 0C7.665 0 4.8 2.90977 4.8 6.5C4.8 10.0902 7.665 13 11.2 13ZM15.68 14.625H14.845C13.735 15.143 12.5 15.4375 11.2 15.4375C9.9 15.4375 8.67 15.143 7.555 14.625H6.72C3.01 14.625 0 17.682 0 21.45V23.5625C0 24.9082 1.075 26 2.4 26H20C21.325 26 22.4 24.9082 22.4 23.5625V21.45C22.4 17.682 19.39 14.625 15.68 14.625Z" fill="white"/>
</svg>
