<svg width="22" height="22" viewBox="0 0 22 22" fill="none" xmlns="http://www.w3.org/2000/svg">
<path d="M13.1136 10.1458C13.6338 10.1458 14.0555 9.72693 14.0555 9.21019C14.0555 8.69344 13.6338 8.27453 13.1136 8.27453H9.94526V4.95725C9.94526 4.4405 9.52355 4.02159 9.00333 4.02159C8.48312 4.02159 8.0614 4.4405 8.0614 4.95725V8.27453H4.72184C4.20163 8.27453 3.77991 8.69344 3.77991 9.21019C3.77991 9.72693 4.20163 10.1458 4.72184 10.1458H8.0614V13.2931C8.0614 13.8099 8.48312 14.2288 9.00333 14.2288C9.52355 14.2288 9.94526 13.8099 9.94526 13.2931V10.1458H13.1136Z" fill="white"/>
<path fill-rule="evenodd" clip-rule="evenodd" d="M8.94813 17.777C4.00622 17.777 0 13.7975 0 8.88852C0 3.97953 4.00622 0 8.94813 0C13.8901 0 17.8963 3.97953 17.8963 8.88852C17.8963 11.0434 17.1243 13.0192 15.8401 14.5579L21.7241 20.4027C22.092 20.7681 22.092 21.3606 21.7241 21.726C21.3563 22.0913 20.7599 22.0913 20.392 21.726L14.4925 15.8657C12.9681 17.0626 11.0421 17.777 8.94813 17.777ZM8.94813 16.0758C4.95206 16.0758 1.7126 12.858 1.7126 8.88852C1.7126 4.91907 4.95206 1.70119 8.94813 1.70119C12.9442 1.70119 16.1837 4.91907 16.1837 8.88852C16.1837 12.858 12.9442 16.0758 8.94813 16.0758Z" fill="white"/>
</svg>
